<svg width="400" height="400" viewBox="0 0 400 400" fill="none" xmlns="http://www.w3.org/2000/svg">
<path d="M141.54 300.2C144.874 299.02 148.29 298.084 151.76 297.4L152.18 298.94C152.227 299.122 152.338 299.28 152.492 299.387C152.646 299.493 152.834 299.541 153.02 299.52L166.76 297.92C170.54 289.3 177.48 276.24 177.58 276.04C177.48 272.78 177.58 270.04 177.58 266.92C169.72 269.84 155.18 275.38 147.58 278.92C147.408 279.031 147.275 279.193 147.2 279.383C147.125 279.573 147.111 279.782 147.16 279.98C147.16 279.98 147.3 280.48 147.48 281.2C143.76 281.2 132.62 280.66 129.94 283.2C129.523 283.781 129.319 284.487 129.36 285.2C129.2 287.96 130.58 309.4 132.78 315.7C133.92 319 136.32 318.64 137.96 315.48C139.858 310.722 141.077 305.719 141.58 300.62C141.58 300.36 141.52 300.38 141.54 300.2V300.2ZM139.24 282.3C141.68 282.1 142.44 282.14 147.68 281.98C148.62 285.54 150.56 292.86 151.56 296.6C148.031 297.147 144.548 297.956 141.14 299.02C140.078 293.504 139.443 287.914 139.24 282.3Z" fill="black"/>
<path d="M325.62 107.26C326.12 106.56 325.48 105.66 324.94 104.96C326.469 103.387 328.166 101.985 330 100.78C333.094 99.2381 335.923 97.2127 338.38 94.7802C339.4 93.7202 341.32 91.5402 340.6 90.2602C339.88 88.9802 338.6 88.9002 336.86 89.6402C337.614 88.8487 338.229 87.9359 338.68 86.9402C339.24 85.3802 337.92 84.1202 335.06 85.2802C336.1 83.6202 336.34 81.8802 334.58 81.0402C333.16 80.3602 331.08 81.9802 329.88 83.0402C327.524 85.099 325.312 87.3176 323.26 89.6802C322 87.0402 320 84.0002 317.5 84.9602C315 85.9202 316.94 90.2202 318.22 92.5602L313.68 95.7002C312.994 95.3298 312.218 95.1567 311.44 95.2002C306.28 96.0802 282.58 114.12 280.18 114.12C278.34 114.12 252.06 101.52 229.34 97.8802C229.296 97.7439 229.215 97.6228 229.105 97.5308C228.995 97.4388 228.862 97.3797 228.72 97.3602C224.757 96.684 220.739 96.3826 216.72 96.4602C216.598 96.4684 216.479 96.503 216.372 96.5618C216.265 96.6205 216.172 96.7018 216.1 96.8002H214.42C214.02 95.1802 212.54 91.4402 212.02 90.0002C213.38 88.8202 215.26 88.2202 216.24 86.3202C218.04 82.8002 217.96 76.6802 217.46 72.7602C219.72 71.0402 219.78 68.2802 219.26 65.4602C219.06 64.3202 218.44 61.7402 217.48 61.1002C216.94 60.7402 215.8 61.1002 214.82 61.4602C213.84 59.1802 213.84 60.2202 214.24 59.3002C214.426 58.8762 214.534 58.4223 214.56 57.9602C215.62 58.2802 217.82 56.1602 217.06 53.3602C216.662 52.3578 216.173 51.3938 215.6 50.4802C215.88 49.8002 216.48 48.9802 214.6 46.4802C213.79 45.6068 212.739 44.9941 211.58 44.7202H210.66C209.997 43.7567 209.022 43.0506 207.9 42.7202C206.206 42.2883 204.41 42.5397 202.9 43.4202C202.5 43.7202 202.18 44.1202 201.78 44.4002C200.876 43.851 199.838 43.5607 198.78 43.5607C197.722 43.5607 196.684 43.851 195.78 44.4002C195.251 44.6079 194.769 44.9205 194.363 45.3192C193.957 45.7179 193.637 46.1944 193.42 46.7202C192.44 46.3821 191.4 46.2519 190.367 46.338C189.334 46.4241 188.33 46.7245 187.42 47.2202C183.965 49.0937 181.381 52.2452 180.22 56.0002C180.188 56.5664 180.188 57.134 180.22 57.7002H180C177 57.2602 173.18 64.3802 176.24 69.9202C176.6 70.5802 177.06 71.2002 177.5 71.9202C178.78 73.9202 178.28 74.5202 181.14 76.9602C181.98 77.6802 182.12 77.6202 182.64 78.0602C183.16 78.5002 182.96 78.2802 183.26 79.4002C183.423 80.0599 183.716 80.6807 184.121 81.2266C184.526 81.7724 185.036 82.2325 185.62 82.5802C185.832 84.5364 186.667 86.373 188 87.8202C188.422 88.2927 188.915 88.6974 189.46 89.0202C189.607 89.1031 189.771 89.151 189.94 89.1602C190.54 92.8802 191.28 97.7202 191.6 99.7802L189.82 100.74C187.491 101.677 185.226 102.766 183.04 104C182.868 104.119 182.747 104.297 182.7 104.5C180.58 105.62 178.58 106.68 177.44 107.36C161.56 116.78 116.46 178.88 116 181.72C115.949 181.883 115.949 182.057 116 182.22C116.646 183.252 117.434 184.187 118.34 185C118.061 185.509 117.725 185.986 117.34 186.42C113.34 189.04 107.34 192.94 104.12 196.42C103.894 196.622 103.725 196.878 103.628 197.165C103.532 197.452 103.512 197.759 103.571 198.056C103.629 198.353 103.764 198.629 103.962 198.858C104.16 199.087 104.415 199.26 104.7 199.36C105.3 199.56 105.4 199.5 109.3 197.36C108.228 198.3 107.351 199.442 106.72 200.72C106.46 201.82 107.46 202.46 108.72 202.26C109.429 202.074 110.104 201.777 110.72 201.38C110.359 201.937 110.167 202.587 110.167 203.25C110.167 203.914 110.359 204.563 110.72 205.12C112.72 207.64 117.96 199.7 120.72 197.74C121.84 199.16 123.36 202.48 125.78 201.6C127.88 200.82 125.58 196.2 125.78 194.86C126.594 194.079 127.463 193.357 128.38 192.7C129.923 193.844 131.687 194.655 133.56 195.08C136.86 195.08 171.3 160.32 173.92 157.54C172.98 166.38 168.24 204.32 169.24 211.7C169.7 215.04 177.72 215.52 181.1 215.7C180.08 239.7 179.4 276.06 179.22 276.44C173.92 287.86 172.48 290.98 170.7 294.44C167.46 300.64 153.82 323.52 152.28 328.72C152.06 329.54 152.04 329.86 152.9 331.38C150.323 334.09 147.931 336.97 145.74 340C144.64 342 149.36 360.64 152.7 367.24C153.46 368.72 154.7 371 156.36 370.94C161.36 370.76 161.34 352.8 161.2 347.78C161.199 347.625 161.142 347.476 161.04 347.36C161.946 346.007 162.935 344.712 164 343.48C164.636 343.918 165.304 344.306 166 344.64C166.68 344.94 167.44 344.42 168 343.96C174.66 338.72 210.58 293.96 218.28 272.84C221.78 263.2 226.44 249.88 227.76 240.44C228.567 234.472 228.641 228.427 227.98 222.44C227.98 222.355 228.014 222.274 228.074 222.214C228.134 222.154 228.215 222.12 228.3 222.12C228.385 222.12 228.466 222.154 228.526 222.214C228.586 222.274 228.62 222.355 228.62 222.44C229.621 228.461 229.817 234.588 229.2 240.66C227.72 253.76 217.38 281.06 211.86 291.1C216.62 290.22 226.3 288.3 230.98 286.9C246.58 282.16 260.98 268.02 262.24 252.14C262.648 244.659 262.648 237.161 262.24 229.68C262.105 219.352 260.762 209.076 258.24 199.06C262.48 196.76 266.36 194.06 267.62 191.58C270.32 186.28 263.18 155.78 261.62 147.22C270.16 148.16 284.7 149.86 291.48 144.56C299.24 138.32 316 120.76 325.62 107.26V107.26ZM160.12 346.68C156.52 344.5 151.48 339.32 150.72 335.26C151.54 334.22 152.4 333.26 153.2 332.18C155.91 336.316 159.29 339.973 163.2 343C162.101 344.165 161.073 345.394 160.12 346.68V346.68ZM319.12 93.1202C319.223 93.0542 319.298 92.951 319.327 92.832C319.357 92.713 319.34 92.5871 319.28 92.4802C318.58 91.1802 316.48 86.6002 317.94 86.0802C318.78 85.7602 319.52 86.2802 320.14 86.9802C321.087 88.1812 321.824 89.5336 322.32 90.9802C322.357 91.0978 322.425 91.2031 322.518 91.2849C322.61 91.3666 322.723 91.4218 322.844 91.4444C322.965 91.467 323.09 91.4562 323.206 91.4132C323.321 91.3702 323.423 91.2965 323.5 91.2002C325.5 88.9802 330.18 83.9202 332.82 82.5602C334.82 81.5202 335.3 83.4402 330.4 87.9202C329.274 88.7783 328.193 89.6928 327.16 90.6602C327.103 90.7387 327.072 90.8332 327.072 90.9302C327.072 91.0272 327.103 91.1217 327.16 91.2002C327.16 91.7202 327.58 92.3002 328.3 91.7602C330.038 90.2341 331.876 88.8244 333.8 87.5402C334.782 86.8425 335.924 86.4024 337.12 86.2602C336.52 88.1002 330.94 93.1002 330.46 93.6602C330.308 93.7966 330.215 93.9874 330.202 94.1914C330.189 94.3954 330.257 94.5964 330.391 94.751C330.524 94.9057 330.713 95.0016 330.917 95.0183C331.121 95.035 331.323 94.971 331.48 94.8402C333.7 93.4002 337.58 90.0402 338.92 90.5402C340.26 91.0402 336.28 94.7602 335.28 95.6402C329.54 100.62 331.02 97.4202 324.38 104.18C321.49 101.014 318.171 98.2674 314.52 96.0202L319.12 93.1202ZM232.22 188.78C231.88 186.02 231.46 183.04 230.94 179.94L231.8 178.8C235.8 173.66 237 165.48 236.62 159.06C238.76 168.44 240.46 177.66 241.76 186.82L232.22 188.78ZM202.48 120.3C197.22 116.3 188.76 109.4 183.84 104.68L191.84 100.68C199.186 107.542 205.474 115.454 210.5 124.16C218.184 138.277 223.885 153.386 227.44 169.06L198.92 128.72L202.64 121C202.689 120.881 202.7 120.75 202.672 120.625C202.643 120.499 202.576 120.386 202.48 120.3ZM216 97.6202C216.12 97.8402 217.5 100.78 219.6 105.92C219.6 106.14 219.22 111.14 219.04 112.9C216.487 111.888 214.08 110.543 211.88 108.9C212.32 107.16 214.3 99.2602 214.44 97.4802L216 97.6202ZM208.9 119.1C209.04 118.74 209.18 118.26 209.34 117.7L210.68 118.4C211.44 118.9 211.14 117.38 211.82 121.78C211.82 122.52 212.02 123.34 212.06 124.24C211.14 122.58 210 120.8 208.92 119.1H208.9ZM207.78 117.42C204.001 112.061 199.7 107.09 194.94 102.58L210 109.12C209.42 110.5 208.58 114.72 207.8 117.42H207.78ZM223.16 129.14C221.16 123.68 219.62 117.58 218.86 115.98C218.905 115.481 218.905 114.979 218.86 114.48C219.149 114.588 219.452 114.655 219.76 114.68C219.953 114.682 220.14 114.615 220.287 114.49C220.434 114.365 220.531 114.191 220.56 114C220.72 113.34 220.98 110 221.02 109.26C226.838 123.949 231.695 139.001 235.56 154.32C224.26 130.28 226 137.24 223.18 129.14H223.16ZM239.7 167.32C235.14 145.46 227.12 118.2 218 98.0002C221.349 98.002 224.693 98.2695 228 98.8002C229.7 114 228.28 113.48 229.42 114.08C230.56 114.68 237.42 117.44 238.44 117.86C238.34 119.4 239.78 163.44 239.72 167.32H239.7ZM216.68 62.3802C217.722 64.6555 218.09 67.1821 217.74 69.6602C217.577 70.2909 217.242 70.864 216.773 71.3159C216.304 71.7677 215.719 72.0804 215.082 72.2193C214.446 72.3582 213.783 72.3178 213.169 72.1025C212.554 71.8873 212.011 71.5057 211.6 71.0002C210.646 68.9899 209.927 66.8758 209.46 64.7002C210 64.0002 215.76 62.6002 216.68 62.3802V62.3802ZM189.16 82.3802C188.429 82.0475 187.682 81.7538 186.92 81.5002C186.409 81.2901 185.952 80.9657 185.586 80.5519C185.22 80.1381 184.953 79.6459 184.806 79.113C184.659 78.5801 184.636 78.0207 184.739 77.4777C184.842 76.9346 185.068 76.4224 185.4 75.9802C186.66 74.9202 187.8 74.9802 188.84 76.5602C189.5 77.7802 189.48 77.8802 189.78 78.0002C189.866 78.0381 189.959 78.0572 190.053 78.0562C190.147 78.0552 190.24 78.0341 190.325 77.9943C190.41 77.9545 190.486 77.897 190.547 77.8256C190.608 77.7542 190.654 77.6705 190.68 77.5802C190.976 76.3283 191.024 75.0304 190.82 73.7602C190.58 72.3802 190.54 66.2602 190.58 66.0602C191.164 66.3681 191.82 66.5132 192.48 66.4802C196.1 66.3402 196.82 64.4802 198.26 62.9602C199.92 63.1202 200.26 63.9202 202.14 62.9602C203.02 62.4594 203.828 61.8403 204.54 61.1202C205.115 61.3555 205.67 61.6364 206.2 61.9602C207.399 62.5366 208.75 62.7136 210.057 62.4652C211.364 62.2169 212.556 61.5562 213.46 60.5802C213.68 61.0002 213.88 61.4202 214.06 61.8602C212.222 62.4305 210.492 63.3023 208.94 64.4402C208.6 64.8602 209.1 67.1402 209.22 67.6802C207.545 67.8909 205.923 68.4133 204.44 69.2202C204.14 68.1802 203.48 66.2402 202.44 65.7002C202.127 65.6044 201.793 65.6044 201.48 65.7002C199.68 65.9802 193.22 67.9202 192.44 68.9802C191.76 69.7202 193.7 75.4402 194.3 76.3802C196.6 79.9402 203.34 78.9002 204.6 74.7402C204.912 73.3441 204.912 71.8963 204.6 70.5002C205.18 70.5002 206.92 69.8802 207.12 69.8202C208.5 72.9202 208.9 73.1002 210.5 76.4402C210.28 76.6202 209.92 76.9202 209.62 77.1202C208.2 78.0602 207.9 77.9002 207.98 78.3002C208.003 78.3796 208.055 78.4477 208.125 78.4919C208.195 78.5361 208.278 78.5533 208.36 78.5402C209.199 78.4202 210.02 78.1917 210.8 77.8602C211.267 77.6859 211.652 77.3436 211.88 76.9002C212.44 75.6402 209.34 70.9002 208.12 69.4802C208.36 69.4802 208.92 69.0802 209.34 68.8602C209.9 71.1002 210.28 72.8602 212.44 73.7402C213.064 73.9759 213.73 74.0832 214.396 74.0557C215.063 74.0282 215.717 73.8665 216.32 73.5802C216.64 77.1002 216.58 82.8202 214.9 85.9402C214.04 87.5602 211.92 88.1802 210.56 89.5202C210.16 89.9002 210.42 90.4402 210.56 91.0202C212.78 97.2002 212.82 97.1802 212.7 97.9802C212.111 101.301 211.289 104.575 210.24 107.78C209.74 107.56 204.12 104.58 193.12 100.3C192.78 98.0402 190.96 85.9802 190.38 83.7602C190.42 82.9802 190.32 82.8002 189.16 82.2802V82.3802ZM203.16 74.2202C202.52 76.4002 199.5 77.3402 197.34 76.7402C195.18 76.1402 195.04 75.0402 194.02 72.4402C193.542 71.4469 193.212 70.389 193.04 69.3002C193.7 68.5802 200.92 67.1002 201.82 66.9602C203.082 69.1196 203.556 71.6503 203.16 74.1202V74.2202ZM124.9 194.3C124.14 195.04 125.16 197.46 125.32 199.56C125.32 199.74 125.32 200.52 125.2 200.58C124.1 200.94 123.08 199.28 122.46 198.28C121.84 197.28 121.22 195.92 120.24 196.28C118.24 197.22 113.6 203.38 111.78 204.02C110.86 202.26 116.12 197.24 116.3 196.96C116.377 196.832 116.418 196.684 116.417 196.534C116.416 196.384 116.374 196.238 116.296 196.11C116.218 195.982 116.106 195.878 115.972 195.809C115.839 195.741 115.69 195.71 115.54 195.72C115.18 195.72 114.94 196.04 114.38 196.54C112.677 198.203 110.727 199.592 108.6 200.66C110.528 198.448 112.592 196.357 114.78 194.4C114.888 194.289 114.964 194.151 115 194C115 194 114.58 192.94 113.76 193.36C112.6 194 106.96 197.26 105.18 198.1C104.94 197.94 105.08 197.7 105.18 197.46C108 194 114.2 189.8 118 187.14C118.446 186.681 118.817 186.155 119.1 185.58C121.732 188.029 124.539 190.282 127.5 192.32C126.588 192.918 125.719 193.58 124.9 194.3V194.3ZM171.44 212.48C171 212.2 170.68 211.94 170.62 211.58C169.52 203.42 175.64 157.18 175.54 155.36C175.54 155.253 175.519 155.148 175.477 155.049C175.436 154.951 175.375 154.862 175.299 154.787C175.222 154.713 175.132 154.654 175.032 154.615C174.933 154.576 174.827 154.557 174.72 154.56C173.7 154.56 175.5 154.56 150.02 178.96C148.34 180.54 135.5 192.82 133.36 193.64C130.42 193.42 119.36 184.6 117.56 181.82C121.04 174.78 163.24 116.86 177.84 108C178.96 107.32 180.88 106.26 182.98 105.14C183.706 105.825 184.489 106.447 185.32 107C189.96 111.4 196.42 116.88 201.32 121L197.5 128.58C197.442 128.681 197.411 128.794 197.411 128.91C197.411 129.026 197.442 129.14 197.5 129.24C228.52 173.74 228.06 173.24 228.26 173.24C230.248 183.523 231.485 193.937 231.96 204.4C231.96 207.22 231.96 206.98 232.08 206.78C232.2 206.58 232.08 206.92 232.08 206.92C227.24 212.2 179.34 217.12 171.44 212.48V212.48ZM282 146.22C272.94 147.48 262.7 145.6 260.72 145.52C259.62 140.188 257.427 135.142 254.28 130.7C254.232 130.635 254.161 130.591 254.082 130.576C254.003 130.562 253.921 130.577 253.852 130.62C253.784 130.663 253.735 130.73 253.714 130.808C253.693 130.886 253.702 130.969 253.74 131.04C254.9 133.4 258.78 143.58 259.74 146.06C259.44 147.02 268.78 185.64 266.14 190.84C263.78 195.54 250.04 201.46 245.08 203.16C244.099 192.026 242.497 180.955 240.28 170C240.96 164.24 240.08 130 239.82 117.34C239.812 117.193 239.763 117.051 239.678 116.931C239.593 116.81 239.476 116.717 239.34 116.66L230.36 112.88C230.319 108.127 230.019 103.38 229.46 98.6602C251.88 102.54 278 115.36 280.18 115.38C283.34 115.38 306.82 97.3802 311.68 96.6602C313.84 96.3202 323.12 104.42 324.2 106.66C314.72 119.9 298.06 137.3 290.34 143.32C287.853 144.983 284.982 145.981 282 146.22V146.22Z" fill="black"/>
<path d="M201.1 70.2202C201.075 70.0889 201.024 69.9637 200.951 69.852C200.878 69.7402 200.783 69.644 200.673 69.5687C200.562 69.4935 200.438 69.4408 200.307 69.4136C200.176 69.3864 200.041 69.3852 199.91 69.4102C199.779 69.4351 199.654 69.4857 199.542 69.559C199.43 69.6323 199.334 69.7269 199.259 69.8374C199.183 69.9479 199.131 70.0722 199.103 70.203C199.076 70.3339 199.075 70.4689 199.1 70.6002C199.5 72.6002 199.58 73.0602 200.46 73.0602C200.626 73.0608 200.79 73.0199 200.937 72.9411C201.083 72.8624 201.208 72.7484 201.299 72.6094C201.391 72.4704 201.446 72.3108 201.46 72.145C201.474 71.9793 201.447 71.8126 201.38 71.6602C201.32 71.3402 201.14 70.4002 201.1 70.2202V70.2202ZM207.22 83.4602C208.52 83.8402 209.76 83.2202 209.72 82.9002C209.68 82.5802 209.72 82.7402 207.96 82.0802C206.78 81.6402 205.48 80.0802 205.02 80.3202C204.56 80.5602 205.26 81.8402 205.42 82.0802C205.848 82.7294 206.482 83.2155 207.22 83.4602V83.4602ZM243.8 64.4602C241.18 75.4402 239.26 84.7602 238.94 86.6202C238.728 87.4295 238.687 88.2742 238.82 89.1002C239.88 91.3602 253.58 95.8202 255.32 94.9402C257.06 94.0602 261.58 83.8802 266.84 73.3802C270.062 73.4832 273.287 73.2485 276.46 72.6802C279.801 72.0672 283.053 71.0392 286.14 69.6202C292.9 66.5002 300.3 53.1402 301.3 46.4202C302.05 39.1243 300.505 31.7762 296.88 25.4002C280.1 -3.69981 230.88 11.9602 234.88 44.2802C236.022 51.6756 239.1 58.6376 243.8 64.4602V64.4602ZM256 88.2802C256 88.6002 255.64 88.5602 254 88.2802C250.646 87.8586 247.398 86.8212 244.42 85.2202C243.02 84.4602 242.64 84.3002 242.78 83.9602C242.92 83.6202 243.22 83.7402 245.38 84.3402C245.58 84.3402 251.78 86.3402 253.56 86.9602C255.86 88.0002 256 88.0002 256 88.2802V88.2802ZM255.64 55.7402C257.776 55.851 259.904 55.4101 261.82 54.4602C263.601 55.3229 265.527 55.8452 267.5 56.0002C264.14 62.2602 257.32 75.0202 255.12 81.8202L246.64 79.4802C248.64 74.5602 253.06 63.0402 255.6 55.7402H255.64ZM254.94 54.0802C253.447 53.8546 252.069 53.1456 251.018 52.0618C249.967 50.978 249.3 49.5793 249.12 48.0802C248.56 44.0802 251.12 39.6002 254.98 40.6602C257.4 41.3202 257.7 43.2402 257.28 45.6602C256.92 47.4202 255.62 51.8402 254.9 54.0002L254.94 54.0802ZM260.38 49.2802C260.594 47.9715 261.085 46.7236 261.82 45.6202C262.17 45.0187 262.682 44.5274 263.297 44.2022C263.912 43.8769 264.606 43.7307 265.3 43.7802C266.78 44.2202 267.42 47.0202 266.2 48.7802C265.028 50.3362 263.568 51.6532 261.9 52.6602C261.326 52.3234 260.869 51.819 260.59 51.2148C260.311 50.6105 260.224 49.9355 260.34 49.2802H260.38ZM242 23.8602C250.96 13.0802 267.82 8.80019 280 13.2402C286.617 15.5115 292.182 20.1103 295.66 26.1802C299.108 32.2473 300.583 39.2371 299.88 46.1802C298.96 52.4002 291.88 65.3202 285.66 68.1802C279.973 70.7742 273.768 72.033 267.52 71.8602C266.84 71.8602 266.12 71.8602 265.86 72.3402C264.68 74.7402 262.52 79.3802 260.4 83.7402C258.936 83.0333 257.418 82.4448 255.86 81.9802C258.18 75.3402 265.5 62.3002 268.98 55.9802C271.995 56.2385 275.026 55.715 277.78 54.4602C278.524 54.0685 279.141 53.4728 279.558 52.7429C279.976 52.0129 280.176 51.1791 280.136 50.3392C280.096 49.4994 279.818 48.6883 279.333 48.0012C278.848 47.3141 278.178 46.7796 277.4 46.4602C274.3 44.9402 271.52 48.5802 269.9 51.6402C269.46 52.4402 268.96 53.3802 268.4 54.4402C266.782 54.3339 265.187 54.0041 263.66 53.4602C265.181 52.3913 266.53 51.0964 267.66 49.6202C268.293 48.6639 268.614 47.5347 268.578 46.3884C268.542 45.242 268.152 44.135 267.46 43.2202C266.917 42.5892 266.162 42.1781 265.337 42.0639C264.512 41.9498 263.674 42.1405 262.98 42.6002C261.579 43.4608 260.457 44.7075 259.747 46.1904C259.038 47.6733 258.771 49.3295 258.98 50.9602C259.197 51.8806 259.693 52.7117 260.4 53.3402C259.088 53.8835 257.68 54.1557 256.26 54.1402C257.06 51.7802 258.36 47.5202 258.7 45.7802C258.913 44.7882 258.961 43.7677 258.84 42.7602C258.685 41.8953 258.284 41.0935 257.684 40.4513C257.085 39.8091 256.312 39.3538 255.46 39.1402C250.6 37.7602 247.02 43.1402 247.72 48.1602C247.918 49.9592 248.69 51.6466 249.922 52.9723C251.154 54.298 252.78 55.1914 254.56 55.5202C252 62.7202 248 74.3402 246 79.3002L241.6 78.1602C244.42 64.0002 244.76 64.3402 244.36 64.1602C239.816 58.3662 236.908 51.4598 235.94 44.1602C235.469 40.5407 235.765 36.8625 236.809 33.365C237.853 29.8674 239.622 26.6289 242 23.8602V23.8602ZM269.76 54.5602C271.16 52.0202 273.96 46.4602 276.68 47.8202C277.224 48.0394 277.698 48.403 278.05 48.8718C278.403 49.3406 278.62 49.8967 278.68 50.4802C278.64 54.0002 273.16 54.6202 269.68 54.5602H269.76ZM346.32 63.3802C348.73 61.9628 351.577 61.4789 354.32 62.0202C357.333 62.0741 360.212 63.2789 362.365 65.3875C364.518 67.4961 365.783 70.3487 365.9 73.3602C364.088 72.3088 361.969 71.9133 359.9 72.2402C354.88 72.6802 348.32 75.4002 349.2 80.2402C349.92 84.2402 355.2 83.7002 359.2 82.6202C363.2 81.5402 366.38 79.5802 367.2 75.7202C372.06 79.2602 373.2 85.4602 373.4 91.5202C373.4 91.6051 373.434 91.6865 373.494 91.7465C373.554 91.8065 373.635 91.8402 373.72 91.8402C373.805 91.8402 373.886 91.8065 373.946 91.7465C374.006 91.6865 374.04 91.6051 374.04 91.5202C374.18 84.7402 372.96 78.1002 367.42 74.2402C367.477 72.5038 367.181 70.7738 366.55 69.1551C365.919 67.5364 364.966 66.0626 363.749 64.8229C362.531 63.5832 361.075 62.6034 359.468 61.9429C357.861 61.2824 356.137 60.9549 354.4 60.9802C351.624 60.5748 348.793 61.1551 346.4 62.6202C345.66 62.9802 346 63.5202 346.32 63.3802V63.3802ZM364.56 77.7202C362.3 80.6802 355.9 82.2202 352.94 81.7202C351.84 81.5402 350.94 81.0802 350.7 79.9402C349.98 75.9402 356.88 73.7602 361 73.6202C362.678 73.4916 364.351 73.9204 365.76 74.8402C365.609 75.8859 365.196 76.8764 364.56 77.7202V77.7202ZM337.16 40.0002C339.3 37.3602 337.86 32.7602 331.88 32.7402C329.56 32.7402 328.44 35.1002 328.6 37.3602C328.96 42.7402 335.02 42.5802 337.16 40.0002V40.0002ZM330 37.2602C330 35.9402 330.62 34.2202 332 34.2402C335.22 34.2402 336.7 35.7402 336.7 37.4002C336.62 41.1802 329.74 43.1402 330 37.2602V37.2602ZM329.18 264C311.6 256.98 303.44 290.96 289.08 320.16C288.989 321.388 289.03 322.621 289.2 323.84C289.2 326.9 289.54 347.16 291.32 349.46C291.8 350.38 293.82 349.46 294.76 348.88C302.744 343.938 310.267 338.288 317.24 332C317.299 331.932 317.344 331.853 317.372 331.767C317.399 331.681 317.409 331.59 317.4 331.5C321.12 326.2 335.06 298.6 338.44 284.76C340.8 274.96 338.46 267.66 329.18 264V264ZM335.46 289.4C326.048 288.194 316.949 285.222 308.64 280.64C313.32 271.78 319.1 261.68 328.64 265.48C339.26 269.7 339.04 278.44 335.46 289.34V289.4ZM302.18 341.4C301.566 340.885 300.895 340.442 300.18 340.08C297.477 338.706 294.355 338.406 291.44 339.24C291.24 336.86 290.1 321.38 290.1 321.24C305.08 326.72 300.46 324.34 315.3 331.72C313.74 333.2 307.88 337.3 302.18 341.36V341.4ZM312.5 283.52C314.451 284.586 316.453 285.554 318.5 286.42C313.916 293.621 309.865 301.148 306.38 308.94C303.02 315.96 303.14 315.92 299.72 323.58C297.72 322.94 295.72 322.34 293.72 321.74C295.88 317.44 311.24 286 312.5 283.48V283.52ZM300.5 323.78C307 312.12 313.62 297.62 319.3 286.68C321.3 287.52 323.3 288.2 325.3 288.8C324.24 290.8 321.14 296.12 320.32 297.66C319.5 299.2 311.28 315.4 310.7 316.64C309.78 318.64 307.26 324.22 306.48 326C304.44 325.1 302.48 324.42 300.42 323.74L300.5 323.78ZM307.2 326.26C308.42 324.04 313.44 314.72 314.06 313.52C315 311.66 325.48 290.24 326.06 289C327.9 289.52 329.84 289.96 331.08 290.2C327.42 300.2 316.88 319.46 313.08 328.96C309.62 327.34 308.84 326.94 307.12 326.22L307.2 326.26ZM308.42 281.22L312 283.22C304.785 295.506 298.501 308.315 293.2 321.54L290.2 320.62C301.82 295.86 302.36 292.62 308.34 281.18L308.42 281.22ZM316.66 330.7L313.64 329.26C316.9 322.86 327.1 306.44 331.76 290.34C332.88 290.54 333.98 290.72 335.04 290.86C329.9 304.574 323.729 317.879 316.58 330.66L316.66 330.7ZM254 343.68C254.797 343.02 255.367 342.127 255.629 341.125C255.891 340.124 255.832 339.066 255.46 338.1C255.29 336.707 254.651 335.412 253.648 334.431C252.645 333.449 251.337 332.837 249.94 332.698C248.543 332.558 247.141 332.898 245.963 333.662C244.785 334.426 243.902 335.568 243.46 336.9C240.9 335.24 238.12 333.48 235.46 331.8C237.46 329.14 243.34 330.32 243.94 332.5C243.953 332.585 244 332.661 244.069 332.712C244.138 332.762 244.225 332.783 244.31 332.77C244.395 332.757 244.471 332.711 244.522 332.641C244.572 332.572 244.593 332.485 244.58 332.4C244.28 328.92 237.04 326.88 234.12 330.98C231.54 329.4 228.34 327.48 225.66 326.02C227.96 324.02 233.1 325.14 233.66 327.22C233.686 327.291 233.737 327.351 233.803 327.388C233.869 327.425 233.946 327.438 234.021 327.423C234.095 327.409 234.162 327.369 234.21 327.309C234.257 327.25 234.282 327.176 234.28 327.1C234.02 323.86 227.32 321.68 224.28 325.24C223.006 324.526 221.667 323.937 220.28 323.48C220.027 323.375 219.748 323.346 219.479 323.395C219.209 323.445 218.959 323.572 218.76 323.76C213.7 330.06 196.64 346.42 188.76 348.32C188.562 348.35 188.375 348.432 188.219 348.556C188.062 348.681 187.941 348.846 187.868 349.032C187.795 349.219 187.773 349.421 187.803 349.619C187.833 349.817 187.915 350.004 188.04 350.16C189.77 351.917 191.752 353.406 193.92 354.58C191.92 356.58 190.36 358.38 189.2 359.68C188.6 360.32 188.28 372.56 188.8 375.26C188.877 375.525 189.048 375.752 189.28 375.9C191.8 377.62 224.26 391.66 227.58 389.78C229.8 388.52 256.3 360.94 256.72 360.1C257.36 358.78 257.14 349.98 257.1 346.46C256.94 345.4 254.96 344.26 254 343.68V343.68ZM190 370.1V365.64C198.3 369.64 217.3 377.8 224.5 380.08C226.34 380.68 226.5 380.6 227.46 380.08C232.96 376.56 252.38 354.68 255.94 351.34V355.56C245.14 366.38 226.8 385.34 226.46 384.26C224.48 384.14 191.72 370.9 190 370.1ZM253.5 336.94C254.219 338.152 254.605 339.531 254.62 340.94C254.613 341.388 254.503 341.829 254.298 342.228C254.094 342.627 253.8 342.973 253.44 343.24C251.76 342.12 248.58 340.04 244.82 337.6C246.88 333.54 251.46 333.48 253.42 336.94H253.5ZM189.5 349.74C198.02 347.22 214.2 331.62 219.64 324.86C220.949 325.225 222.211 325.741 223.4 326.4C221.4 330.12 223.54 334.2 224.3 333.62C224.72 333.3 223.96 333.18 223.84 331.22C223.789 329.788 224.113 328.368 224.78 327.1C227.54 328.54 230.78 330.42 233.52 332C231.84 335.74 233.86 339.44 234.56 338.9C235.26 338.36 234.24 338.48 234.12 336.52C234.071 335.235 234.318 333.955 234.84 332.78C237.66 334.44 240.54 336.16 243.18 337.78C242.773 338.777 242.612 339.856 242.709 340.928C242.807 342 243.16 343.033 243.74 343.94C243.766 343.974 243.799 344.003 243.836 344.024C243.874 344.046 243.915 344.06 243.958 344.065C244 344.071 244.044 344.068 244.085 344.057C244.127 344.046 244.166 344.026 244.2 344C244.234 343.974 244.263 343.941 244.284 343.904C244.306 343.867 244.32 343.825 244.325 343.783C244.331 343.74 244.328 343.697 244.317 343.655C244.306 343.613 244.286 343.574 244.26 343.54C243.901 342.746 243.723 341.881 243.74 341.009C243.758 340.137 243.969 339.28 244.36 338.5C249.02 341.34 252.78 343.72 253.94 344.5C253.72 344.7 232.86 363.26 225.76 368.78C221.1 367.56 196.64 355.42 189.5 349.74ZM190.26 360.88C199.32 364.88 219.9 374.16 224.64 375.06C225.46 375.22 225.78 375.28 227.34 374.04C234 368.7 255.66 346.04 255.86 346.28C255.87 346.34 255.87 346.401 255.86 346.46V350.46C251.4 354.04 226.6 380.08 226.2 378.84C224.2 378.84 191.7 365.58 190.04 364.84C190 364 190.18 361.76 190.26 360.88V360.88ZM226.68 388.44C224.68 389.58 194.22 377.2 190.14 374.68C189.987 373.406 189.913 372.124 189.92 370.84C198.68 375.16 224.16 385.92 226.5 385.82C229.92 385.64 254.1 358.42 255.82 356.52C255.84 357.542 255.739 358.562 255.52 359.56C255.18 360.22 228 387.7 226.68 388.44V388.44ZM60.98 275.7C61.12 277.84 61.22 279.7 61.22 281.44C61.22 281.705 61.3254 281.96 61.5129 282.147C61.7004 282.335 61.9548 282.44 62.22 282.44C62.4852 282.44 62.7396 282.335 62.9271 282.147C63.1147 281.96 63.22 281.705 63.22 281.44C63.22 279.58 63.12 277.74 62.98 275.56C62.9614 275.295 62.8383 275.048 62.6376 274.874C62.437 274.699 62.1752 274.612 61.91 274.63C61.6448 274.649 61.3978 274.772 61.2234 274.973C61.049 275.173 60.9614 275.435 60.98 275.7V275.7ZM365.72 235.6C365.589 235.608 365.462 235.641 365.344 235.699C365.227 235.757 365.122 235.837 365.036 235.936C364.951 236.035 364.886 236.15 364.845 236.274C364.804 236.399 364.789 236.53 364.8 236.66C364.92 238.5 365.04 240.48 365.04 242.4C365.04 242.665 365.145 242.92 365.333 243.107C365.52 243.295 365.775 243.4 366.04 243.4C366.305 243.4 366.56 243.295 366.747 243.107C366.935 242.92 367.04 242.665 367.04 242.4C367.04 240.4 366.92 238.4 366.78 236.52C366.772 236.39 366.739 236.262 366.681 236.144C366.623 236.027 366.543 235.922 366.444 235.837C366.345 235.751 366.23 235.686 366.106 235.645C365.982 235.605 365.85 235.589 365.72 235.6V235.6ZM55.8 270.72C56.0652 270.72 56.3196 270.615 56.5071 270.427C56.6947 270.24 56.8 269.985 56.8 269.72C56.8 269.455 56.6947 269.201 56.5071 269.013C56.3196 268.826 56.0652 268.72 55.8 268.72C53.38 268.72 51.36 268.9 49.36 268.86C49.0929 268.86 48.8365 268.965 48.6457 269.152C48.455 269.339 48.3452 269.593 48.34 269.86C48.34 270.125 48.4454 270.38 48.6329 270.567C48.8204 270.755 49.0748 270.86 49.34 270.86C51.4 270.9 53.66 270.82 55.8 270.72ZM359.52 229.68C357.12 229.68 355.1 229.82 353.08 229.84C352.815 229.84 352.56 229.946 352.373 230.133C352.185 230.321 352.08 230.575 352.08 230.84C352.08 231.105 352.185 231.36 352.373 231.547C352.56 231.735 352.815 231.84 353.08 231.84C355.24 231.84 357.48 231.84 359.64 231.68C359.905 231.664 360.153 231.544 360.33 231.345C360.506 231.146 360.596 230.885 360.58 230.62C360.564 230.355 360.443 230.107 360.245 229.931C360.046 229.754 359.785 229.664 359.52 229.68V229.68ZM60.44 258.36C60.56 260.2 60.68 262.18 60.68 264.1C60.6851 264.364 60.7921 264.615 60.9786 264.802C61.165 264.988 61.4164 265.095 61.68 265.1C61.9452 265.1 62.1996 264.995 62.3871 264.807C62.5747 264.62 62.68 264.365 62.68 264.1C62.68 262.1 62.56 260.1 62.44 258.22C62.4214 257.955 62.2983 257.708 62.0976 257.534C61.897 257.359 61.6352 257.272 61.37 257.29C61.1048 257.309 60.8578 257.432 60.6834 257.633C60.509 257.833 60.4214 258.095 60.44 258.36V258.36ZM366.5 225.06C366.5 223.06 366.38 221.06 366.24 219.18C366.221 218.915 366.098 218.668 365.898 218.494C365.697 218.319 365.435 218.232 365.17 218.25C364.905 218.269 364.658 218.392 364.483 218.593C364.309 218.793 364.221 219.055 364.24 219.32C364.36 221.16 364.48 223.14 364.48 225.06C364.48 225.325 364.585 225.58 364.773 225.767C364.96 225.955 365.215 226.06 365.48 226.06C365.747 226.06 366.004 225.956 366.194 225.769C366.385 225.582 366.495 225.327 366.5 225.06V225.06ZM75.2 270.46C75.3314 270.455 75.4604 270.424 75.5798 270.369C75.6991 270.314 75.8065 270.236 75.8956 270.139C75.9848 270.043 76.0541 269.929 76.0994 269.806C76.1448 269.683 76.1654 269.552 76.16 269.42C76.1398 269.158 76.0214 268.914 75.8285 268.736C75.6356 268.558 75.3825 268.459 75.12 268.46C72.7 268.56 70.68 268.64 68.66 268.6C68.3948 268.6 68.1404 268.706 67.9529 268.893C67.7654 269.081 67.66 269.335 67.66 269.6C67.66 269.865 67.7654 270.12 67.9529 270.307C68.1404 270.495 68.3948 270.6 68.66 270.6C70.8 270.64 73.04 270.56 75.2 270.46ZM378.92 229.42C376.92 229.52 374.7 229.58 372.48 229.58C372.348 229.575 372.216 229.596 372.093 229.643C371.969 229.69 371.856 229.761 371.761 229.853C371.666 229.944 371.59 230.054 371.538 230.176C371.487 230.297 371.46 230.428 371.46 230.56C371.46 230.827 371.565 231.084 371.752 231.274C371.939 231.465 372.193 231.575 372.46 231.58C374.74 231.58 376.58 231.58 379 231.42C379.131 231.415 379.26 231.384 379.38 231.329C379.499 231.274 379.606 231.196 379.696 231.099C379.785 231.003 379.854 230.889 379.899 230.766C379.945 230.643 379.965 230.512 379.96 230.38C379.935 230.12 379.816 229.878 379.624 229.701C379.432 229.524 379.181 229.424 378.92 229.42V229.42ZM29.24 211.2C29.5 211.4 85.9 203.04 88.32 201.56C88.454 201.462 88.561 201.332 88.631 201.182C88.7009 201.031 88.7316 200.866 88.72 200.7C88.72 198.12 85.34 173.9 83.72 167.86C83.52 167.12 83.32 166.38 82.86 166.12C79.8 164.28 25.88 174.44 22.66 176.52C22.5727 176.572 22.4973 176.641 22.4388 176.724C22.3802 176.807 22.3397 176.901 22.32 177C21.64 179.42 27.5 210 29.24 211.2V211.2ZM23.54 177.48C27.38 175.74 76.32 166.78 81.92 167.48C83.28 170.98 86.92 196.62 87.16 200.38C84.38 201.2 30 210.54 29.8 210.58C29.6 210.62 29.58 210.86 29.16 209.6C27.4 204.32 23.44 182 23.54 177.48V177.48Z" fill="black"/>
<path d="M92.7199 203.34C92.8288 203.138 92.8773 202.909 92.8599 202.68C92.8599 199.5 88.2999 164.2 86.6799 161.38C86.5529 161.172 86.3732 161.002 86.1589 160.886C85.9446 160.77 85.7034 160.713 85.4599 160.72C78.7599 159.9 22.2399 170.94 18.5199 173.52C17.9999 173.88 18.0799 174.78 18.1399 175.74C18.4599 181 24.1399 215.6 26.1399 215.4C26.3599 215.4 26.2799 215.24 25.7599 216.3C22.6399 222.72 16.7199 243.28 16.8399 247.42C16.8399 249.16 17.2399 251.42 18.9599 251.3C31.2999 249.78 91.7999 240.18 109.2 236.6C109.88 236.46 110.32 235.84 110.3 234.82C110.095 233.121 109.579 231.474 108.78 229.96C106.34 225.38 96.2199 207.24 92.7199 203.34ZM26.2599 214.78C24.6999 212.78 18.9599 178.32 19.3999 174.5C23.7999 172.22 79.5599 161.44 85.3999 162.32C86.9999 166.72 91.1399 198.5 91.3999 202.32C84.3199 204.76 35.2999 212.68 26.2599 214.78ZM27.1399 215.38C28.8199 214.96 86.0399 205.38 91.2799 204C94.1399 206.66 107.06 229.64 107.9 231.6C96.4199 233.6 28.3199 244.98 18.2999 246.5C18.4399 240.44 24.6599 219.26 27.1399 215.38V215.38Z" fill="black"/>
<path d="M34.66 236.12C36.4 235.86 73.32 231.42 86.66 227.8C86.7422 227.779 86.8126 227.726 86.8557 227.653C86.8989 227.58 86.9112 227.493 86.89 227.41C86.8687 227.328 86.8157 227.258 86.7426 227.215C86.6695 227.171 86.5822 227.159 86.5 227.18C83.88 227.72 51.92 231.98 34.62 235.5C34.5722 235.492 34.523 235.494 34.4763 235.507C34.4296 235.521 34.3865 235.544 34.3502 235.577C34.314 235.609 34.2856 235.649 34.2672 235.694C34.2488 235.739 34.2408 235.787 34.244 235.836C34.2471 235.884 34.2612 235.931 34.2852 235.974C34.3093 236.016 34.3426 236.052 34.3827 236.079C34.4228 236.107 34.4686 236.125 34.5166 236.132C34.5646 236.139 34.6137 236.135 34.66 236.12V236.12ZM61.64 96.9604C60.8928 98.6478 60.2646 100.385 59.76 102.16C59.7302 102.445 59.8087 102.731 59.98 102.96C62 106 82.7 129.34 88.1 132.62C88.84 133.08 89.72 133.4 90.26 132.74C94.1827 127.859 99.302 124.077 105.12 121.76C109.855 120.085 114.82 119.147 119.84 118.98C123.84 118.62 124.54 118.22 126.08 115.6C127.897 112.152 130.307 109.052 133.2 106.44C136.889 103.215 140.984 100.485 145.38 98.3204C145.578 98.2082 145.733 98.0331 145.82 97.823C145.907 97.6128 145.921 97.3796 145.86 97.1604C145.184 95.44 144.29 93.8134 143.2 92.3204C143.92 92.0804 144.72 91.8604 144.72 91.1404C144.72 89.1404 127.28 63.9004 122.44 59.1404C121.94 58.6404 121.22 57.9804 120.56 58.0204C110.56 58.5804 100.82 68.0204 95.18 76.2604C88.72 76.0204 84.54 75.4404 77.18 78.5404C71.9841 80.7459 67.2996 84.0005 63.42 88.1004C62.82 88.7204 58.74 93.0404 58.68 93.3804C58.62 93.7204 58.74 93.7204 61.64 96.9604V96.9604ZM141.64 96.4004C133.3 97.8204 127.98 104.76 124.06 112.3C122.32 115.66 122.48 115.82 120.64 115.78C117.422 115.598 114.195 115.719 111 116.14C108.657 116.491 106.352 117.067 104.12 117.86C99.04 119.66 93.22 125.42 90.12 129.7C90.0541 129.788 89.9704 129.862 89.8743 129.915C89.7782 129.968 89.6719 130.001 89.5624 130.01C89.4528 130.02 89.3425 130.006 89.2387 129.97C89.1349 129.934 89.0399 129.876 88.96 129.8C82.46 123.1 70.96 111.34 65.18 104.58C64.9 104.28 65.38 103.84 65.66 104.16C69.4 108.16 79.06 117.74 89.42 128.16C92.92 123.7 98.32 118.3 103.66 116.42C106.572 115.382 109.602 114.71 112.68 114.42C115.562 114.201 118.457 114.201 121.34 114.42C122.52 113.06 128.36 97.6204 141.6 95.9004C141.639 95.9288 141.671 95.9656 141.693 96.0081C141.716 96.0505 141.728 96.0975 141.73 96.1456C141.732 96.1936 141.723 96.2414 141.704 96.2856C141.685 96.3297 141.656 96.3689 141.62 96.4004H141.64ZM120.54 59.6404C124.54 62.4404 140.82 86.5404 142.94 90.7604C139.261 91.926 135.71 93.4604 132.34 95.3404C129.149 96.9401 126.354 99.2317 124.161 102.048C121.967 104.864 120.43 108.135 119.66 111.62C112.48 99.9404 102.46 87.0804 95.8 77.6204C96.2 77.3604 107.44 60.4204 120.54 59.6404V59.6404ZM77.62 79.6404C84.92 76.7004 88.96 77.3804 95 77.6404C101 87.8804 111.78 102.32 118.88 111.78C112.327 110.23 105.431 111.178 99.54 114.44C96 116.44 91.68 121.24 89.02 124.22C85.18 121.14 63.02 97.5404 59.46 93.5404C64.94 87.3404 70 82.6804 77.62 79.5604V79.6404ZM41.02 130.5C40.5256 130.153 39.9413 129.957 39.3378 129.936C38.7342 129.915 38.1375 130.069 37.62 130.38C37.2431 130.548 36.903 130.789 36.6191 131.089C36.3352 131.388 36.1131 131.741 35.9655 132.126C35.8178 132.511 35.7475 132.922 35.7586 133.335C35.7697 133.747 35.8619 134.153 36.03 134.53C36.198 134.907 36.4387 135.247 36.7383 135.531C37.0378 135.815 37.3903 136.037 37.7757 136.185C38.161 136.333 38.5717 136.403 38.9842 136.392C39.3968 136.381 39.8031 136.288 40.18 136.12C40.782 135.989 41.3299 135.677 41.7509 135.227C42.1719 134.777 42.4461 134.209 42.5372 133.6C42.6283 132.99 42.532 132.368 42.261 131.814C41.9901 131.26 41.5572 130.802 41.02 130.5V130.5ZM39.7 134.5C38.3 134.94 37.46 134.5 37.12 133.82C36.48 132.4 37.28 130.22 39.36 130.86C40.82 131.4 42 133.86 39.7 134.6V134.5ZM142.72 38.9804C143.3 40.1604 146 39.7204 147.18 39.3404C147.8 39.1404 148.2 38.9204 148.26 38.3204C148.44 36.8204 148.64 23.8204 147.96 22.5604C147.89 22.4282 147.782 22.3198 147.65 22.2487C147.519 22.1775 147.369 22.1468 147.22 22.1604C145.086 22.1544 142.963 22.4645 140.92 23.0804C140.1 23.5804 142 37.6604 142.72 38.9804ZM141.34 23.5604C143.187 23.2961 145.056 23.209 146.92 23.3004C147.04 24.7804 146.72 37.6004 146.7 37.8004C145.855 38.1032 144.953 38.2125 144.06 38.1204C143.92 37.6604 143.68 36.4204 143.38 34.8604C142.499 31.1328 141.818 27.3608 141.34 23.5604V23.5604ZM39.08 113.62C39.2718 113.719 39.4844 113.77 39.7 113.77C39.9156 113.77 40.1281 113.719 40.32 113.62C41.0926 113.144 41.7055 112.447 42.08 111.62C42.1308 111.488 42.1465 111.345 42.1255 111.205C42.1044 111.064 42.0474 110.932 41.96 110.82C41 109.68 30.52 97.5404 29.24 98.3004C27.6684 99.3178 26.1773 100.454 24.78 101.7C24.7236 101.751 24.6785 101.812 24.6475 101.881C24.6165 101.95 24.6003 102.025 24.6 102.1C24.56 103.14 36.2 112.46 39.08 113.62V113.62ZM29.48 98.8204C30.94 99.8804 35.86 105.96 40.42 111.34C40.2238 111.649 39.9809 111.926 39.7 112.16C34.9057 109.092 30.3282 105.697 26 102C27.085 100.861 28.2478 99.7986 29.48 98.8204V98.8204ZM60.9 54.7004C61.34 46.9404 65.86 43.3404 70.58 42.4204C69.24 47.3404 69.46 53.7404 74.32 54.5604C76.64 54.9404 77.78 53.7404 79.46 52.3404C86.64 46.3404 80.84 40.3404 72.74 40.7604C75.76 32.4804 82.74 25.7404 92 25.5204C92.0848 25.5204 92.1662 25.4867 92.2262 25.4266C92.2862 25.3666 92.32 25.2852 92.32 25.2004C92.32 25.1155 92.2862 25.0341 92.2262 24.9741C92.1662 24.9141 92.0848 24.8804 92 24.8804C82 24.6804 74.14 31.8804 71.04 40.8804C65.7 41.8004 60.4 45.8004 60.26 54.5804C60.2521 54.6224 60.2526 54.6656 60.2614 54.7074C60.2702 54.7492 60.2871 54.7889 60.3113 54.8242C60.3354 54.8595 60.3663 54.8897 60.4021 54.913C60.4379 54.9364 60.4779 54.9525 60.52 54.9604C60.562 54.9682 60.6051 54.9678 60.647 54.959C60.6888 54.9502 60.7285 54.9332 60.7638 54.9091C60.7991 54.8849 60.8293 54.8541 60.8526 54.8183C60.876 54.7824 60.8921 54.7424 60.9 54.7004V54.7004ZM72.28 42.1804C75.26 41.9804 79.7 42.9004 80.92 45.6004C81.62 47.1404 80.92 49.0404 78.44 51.1204C77.7667 51.7949 76.9986 52.3676 76.16 52.8204C73.16 54.1004 69.84 50.4004 72.28 42.1804ZM78 325.04C76.0677 324.523 74.0514 324.397 72.0698 324.67C70.0881 324.943 68.1812 325.61 66.4611 326.632C64.741 327.653 63.2426 329.008 62.054 330.617C60.8654 332.226 60.0106 334.056 59.54 336C58.6515 340.04 59.404 344.266 61.6319 347.751C63.8598 351.235 67.3807 353.692 71.42 354.58C75.4592 355.469 79.686 354.716 83.1704 352.488C86.6548 350.26 89.1115 346.74 90 342.7C90.3795 340.752 90.3696 338.748 89.971 336.804C89.5724 334.859 88.7928 333.013 87.6773 331.372C86.5618 329.73 85.1324 328.325 83.4715 327.239C81.8106 326.152 79.951 325.405 78 325.04V325.04ZM84.18 341.34C83.3775 344.541 81.4564 347.349 78.7639 349.256C76.0715 351.164 72.7855 352.045 69.5 351.74C66.4839 350.562 63.9801 348.358 62.4291 345.515C60.878 342.673 60.379 339.374 61.02 336.2C61.7683 332.922 63.6716 330.023 66.3818 328.032C69.092 326.042 72.428 325.093 75.78 325.36C78.8258 326.619 81.33 328.911 82.8519 331.834C84.3738 334.757 84.8157 338.124 84.1 341.34H84.18Z" fill="black"/>
<path d="M104.64 330.74C102.899 330.139 101.033 329.995 99.2199 330.32C98.4685 328.597 97.5438 326.956 96.4599 325.42C97.7599 324.24 101.32 320.96 100.46 319.42C97.3993 315.759 93.7655 312.618 89.6999 310.12C88.0023 309.169 86.1329 308.564 84.1999 308.34C82.9199 308.52 79.8799 313.5 79.1999 314.62C78.7599 314.62 77.1999 314.12 77.0799 314.06C77.0799 312.62 76.6599 307.42 75.3599 306.82C73.9062 306.285 72.3966 305.916 70.8599 305.72C69.4399 305.5 56.6599 307.84 55.7199 309.56C55.0999 310.72 56.5399 315.1 56.9599 316.32C55.8813 316.914 54.8454 317.582 53.8599 318.32C51.8599 319.74 52.3999 319.68 52.0399 319.52C51.6048 319.312 51.1387 319.177 50.6599 319.12C49.0623 318.183 47.1891 317.83 45.3599 318.12C43.5199 318.72 39.1799 328.6 38.4799 331.14C38.2508 331.781 38.1889 332.469 38.2999 333.14C38.7799 334.46 41.9799 335.52 43.3199 335.94C42.9499 338.513 42.9499 341.127 43.3199 343.7C41.5599 344.18 37.8999 345.26 38.0999 347.06C38.2999 348.86 42.9799 360.74 44.9199 361.68C45.9827 362.274 47.1579 362.64 48.3702 362.754C49.5825 362.867 50.8052 362.726 51.9599 362.34C52.6102 362.015 53.2383 361.648 53.8399 361.24C54.6399 361.84 55.4799 362.38 56.3399 362.9C55.7199 364.44 54.3399 367.88 54.7799 369.44C54.9999 370.26 55.6599 370.52 56.5799 370.86C59.1199 371.78 72.7999 375.06 74.8799 374.7C75.6599 374.58 76.0799 373.76 76.3199 372.98C76.7643 371.205 77.0257 369.389 77.0999 367.56C78.127 367.459 79.1484 367.305 80.1599 367.1C80.7777 368.187 81.568 369.167 82.4999 370C83.5199 370.72 84.3799 370.36 85.5399 369.62C86.0999 370.34 86.9399 371.34 87.8399 371.44C90.0999 371.7 99.4399 362.9 100.4 361.1C101.2 359.6 98.2799 356.92 96.9799 355.74C98.3862 353.624 99.4902 351.322 100.26 348.9C101.702 349.117 103.162 349.198 104.62 349.14C105.28 349.14 106.04 348.9 106.32 348.28C107.54 345.5 107.18 334.96 106.32 332.28C106.2 331.5 105.3 330.98 104.64 330.74V330.74ZM105.12 332.58C105.8 335.18 106.02 345 105.02 347.54C103.291 347.71 101.546 347.63 99.8399 347.3C99.6578 347.269 99.4705 347.307 99.3151 347.407C99.1597 347.507 99.0472 347.661 98.9999 347.84C98.2034 350.544 96.9669 353.098 95.3399 355.4C95.224 355.553 95.1718 355.744 95.1942 355.934C95.2165 356.124 95.3118 356.299 95.4599 356.42C96.8632 357.532 98.0554 358.887 98.9799 360.42C97.9799 362.06 90.1599 369.22 87.9999 369.82C87.6799 369.82 86.7999 368.62 86.5799 368.3C85.8411 367.19 85.1731 366.034 84.5799 364.84C84.4933 364.666 84.3448 364.53 84.1635 364.46C83.9822 364.39 83.7812 364.39 83.5999 364.46C77.7999 366.64 75.5999 365.36 75.5999 366.8C75.6025 368.956 75.2512 371.098 74.5599 373.14C69.8598 372.629 65.2313 371.596 60.7599 370.06C60.9759 367.925 61.5719 365.845 62.5199 363.92C63.1199 362.58 60.7199 362.96 56.2399 358.4C56.0957 358.266 55.9064 358.192 55.7099 358.192C55.5134 358.192 55.3241 358.266 55.1799 358.4C53.1799 360.04 50.5799 361.64 50.0599 361.38C49.0399 360.88 44.3399 350.22 44.0599 348.06C45.4824 347.069 47.0973 346.387 48.7999 346.06C48.9815 346.009 49.1383 345.893 49.2413 345.735C49.3442 345.577 49.3864 345.387 49.3599 345.2C48.8698 342.368 48.8698 339.472 49.3599 336.64C49.3905 336.466 49.3538 336.286 49.2573 336.138C49.1608 335.989 49.0117 335.883 48.8399 335.84C47.3322 335.445 45.8806 334.86 44.5199 334.1C44.0799 333.78 44.1199 333.8 44.1599 333.46C45.4544 328.791 47.5305 324.375 50.2999 320.4C51.3799 320.1 54.2999 322.24 55.2999 323C55.4044 323.101 55.5443 323.158 55.6899 323.158C55.8355 323.158 55.9754 323.101 56.0799 323C56.9989 322.047 57.9884 321.164 59.0399 320.36C62.0799 318.06 62.8999 318.36 62.6399 317.56C61.7205 315.553 61.2041 313.386 61.1199 311.18C61.4299 310.922 61.7816 310.719 62.1599 310.58C64.0271 309.842 65.9455 309.24 67.8999 308.78C70.2689 308.12 72.7038 307.724 75.1599 307.6C75.5799 307.78 75.9599 309.6 76.0599 310.16C76.7999 314.16 76.2999 314.98 76.8799 315.04C82.5799 315.6 83.7399 317.18 84.1399 316.48C85.249 314.541 86.5416 312.712 87.9999 311.02C88.4199 310.6 88.3999 310.4 89.6599 311.12C93.4241 313.58 96.7954 316.594 99.6599 320.06C99.9599 320.58 97.3599 323.34 95.4599 324.96C94.7999 325.54 95.7399 325.8 97.4599 329.08C99.1799 332.36 98.7799 333.28 99.6999 333.08C101.473 332.655 103.299 332.487 105.12 332.58V332.58ZM382.7 165.46C378.507 163.748 374.111 162.585 369.62 162C366.34 161.48 362.48 160.96 359.22 160.54C362.36 156.1 371.66 144.86 373.22 142.12C373.66 141.38 372.82 140.34 372.2 139.72C368.72 136 362 134.6 356.84 133.8C353.88 133.32 341.52 131.8 339.42 132.8C336.9 134 318.26 162 317.7 166.26C317.7 166.98 317.94 167.26 318.64 167.52C321.58 168.6 334.84 170.28 337.8 170.98C333.8 177.98 316.02 201.64 314.28 204.98C313.86 205.82 314.12 206.32 314.62 206.48C316.42 207.194 318.272 207.77 320.16 208.2C320.88 208.42 322.46 207.44 324.76 206.04C335.08 199.84 379.36 170.6 382.76 166.82C382.854 166.731 382.927 166.623 382.976 166.504C383.024 166.384 383.046 166.255 383.041 166.126C383.035 165.997 383.002 165.871 382.943 165.756C382.884 165.641 382.801 165.54 382.7 165.46V165.46ZM339.72 189.46C322.72 200.68 316.98 203.96 316.78 204.1C319.52 199.92 336.54 176.6 339.46 171.02C339.511 170.912 339.537 170.794 339.536 170.675C339.536 170.556 339.509 170.439 339.457 170.331C339.405 170.224 339.33 170.129 339.237 170.055C339.144 169.98 339.036 169.927 338.92 169.9C336.92 169.18 322.36 167.62 318.92 166.4C319.36 162.68 337.52 134.56 339.72 133.44C341.92 132.32 363.26 134.86 367.26 137.72C365.16 141.82 353.56 156.18 351.68 159.52C351.3 160.2 351.18 160.86 351.92 161.04C352.66 161.22 371.46 163.42 375.56 164.76C370.56 168.94 345.32 185.7 339.72 189.38V189.46ZM211.42 67.18C211.42 67.36 211.54 67.58 211.84 68.74C211.919 68.9917 212.092 69.203 212.323 69.3298C212.554 69.4566 212.825 69.4889 213.08 69.42C213.335 69.3458 213.549 69.1734 213.677 68.9409C213.804 68.7083 213.834 68.4346 213.76 68.18C213.56 67.4 213.38 66.74 213.26 66.42C213.143 66.2004 212.949 66.0321 212.715 65.9478C212.481 65.8636 212.225 65.8695 211.995 65.9644C211.765 66.0593 211.579 66.2364 211.473 66.4612C211.366 66.6859 211.347 66.9422 211.42 67.18V67.18Z" fill="black"/>
</svg>
