<svg width="400" height="400" viewBox="0 0 400 400" fill="none" xmlns="http://www.w3.org/2000/svg">
<path d="M96.18 59.5397C96.1229 60.4936 95.8251 61.4176 95.3145 62.2255C94.804 63.0333 94.0971 63.6987 93.26 64.1597C93.9708 65.3643 94.3067 66.7534 94.2248 68.1498C94.1428 69.5461 93.6468 70.8864 92.8 71.9997C91.9712 73.0855 90.8651 73.9278 89.5981 74.4382C88.3311 74.9485 86.9499 75.1079 85.5999 74.8997C85.2399 75.8797 84.38 77.5797 83.4 77.8997C83.2487 77.9785 83.0806 78.0197 82.91 78.0197C82.7393 78.0197 82.5712 77.9785 82.4199 77.8997C82.6574 79.3035 83.3197 80.6007 84.3175 81.6164C85.3153 82.6321 86.6006 83.3173 88 83.5797C92.58 84.3997 96.86 82.8997 96.86 78.2397C97.956 78.4608 99.0871 78.4412 100.175 78.1822C101.263 77.9232 102.281 77.431 103.16 76.7397C103.786 76.2268 104.304 75.5952 104.685 74.8813C105.066 74.1673 105.302 73.3852 105.38 72.5797C105.58 67.4197 102 63.9997 99.7799 63.9997C101.4 61.1397 100.36 58.6597 97.7799 56.7797C97.1223 56.3716 96.3865 56.1059 95.62 55.9997C96.0334 57.1324 96.2236 58.3346 96.18 59.5397V59.5397ZM56.2 61.0197C56.2901 61.0197 56.3766 60.9838 56.4404 60.9201C56.5041 60.8563 56.54 60.7698 56.54 60.6797C56.54 60.5895 56.5041 60.503 56.4404 60.4392C56.3766 60.3755 56.2901 60.3397 56.2 60.3397L54.98 60.1997C54.6 60.1997 53.98 60.1997 53.62 60.0797C53.3871 57.1443 53.3871 54.1951 53.62 51.2597C53.616 51.176 53.583 51.0964 53.5266 51.0345C53.4703 50.9726 53.3941 50.9323 53.3113 50.9204C53.2284 50.9086 53.144 50.926 53.0726 50.9697C53.0012 51.0133 52.9472 51.0805 52.92 51.1597C52.0503 53.3864 51.6618 55.772 51.78 58.1597C51.7486 58.9857 51.8225 59.8123 52 60.6197C52.48 61.8797 54.9 61.3197 56.2 61.0197ZM46.92 49.3597C45.96 49.6197 44.66 50.5597 45.14 50.9197C45.8451 51.2433 46.6487 51.2792 47.38 51.0197C48.08 50.8397 49.24 50.1397 49.22 49.7797C49.2 49.4197 47.86 49.0997 46.92 49.3597V49.3597ZM59.88 50.7597C66.92 52.2197 63.66 49.5397 60.2 49.0997C59.3 48.9797 57.2 49.0997 57.24 49.5997C57.28 50.0997 59.34 50.6397 59.88 50.7597ZM61.46 54.1197C61.4039 54.0207 61.3288 53.9339 61.239 53.8642C61.1492 53.7944 61.0465 53.7432 60.9367 53.7135C60.827 53.6837 60.7124 53.676 60.5997 53.6908C60.487 53.7056 60.3783 53.7426 60.28 53.7997C59.78 54.0797 59.8 54.3797 59.92 55.9997C59.9359 56.2278 60.0417 56.4402 60.2143 56.5902C60.3868 56.7402 60.6119 56.8156 60.84 56.7997C61.068 56.7838 61.2805 56.6779 61.4305 56.5053C61.5805 56.3328 61.6559 56.1078 61.64 55.8797C61.67 55.2873 61.6093 54.6937 61.46 54.1197V54.1197ZM47.3 55.2197C47.3185 54.9916 47.2457 54.7655 47.0976 54.591C46.9494 54.4166 46.738 54.3082 46.51 54.2897C46.2819 54.2711 46.0557 54.3439 45.8813 54.4921C45.7069 54.6402 45.5985 54.8516 45.58 55.0797C45.542 55.5656 45.542 56.0537 45.58 56.5397C45.5959 56.7678 45.7017 56.9802 45.8743 57.1302C46.0468 57.2802 46.2719 57.3556 46.5 57.3397C46.728 57.3238 46.9405 57.2179 47.0905 57.0453C47.2405 56.8728 47.3159 56.6477 47.3 56.4197C47.34 55.9997 47.28 55.4597 47.3 55.2197ZM54.24 68.2397C54.24 68.8797 56.78 69.0397 58.1 67.7197C59.08 66.7397 59.02 65.2397 58.62 65.1397C58.22 65.0397 58.48 65.1397 57.04 66.3797C56.14 67.1397 54.2 67.7397 54.24 68.2397V68.2397Z" fill="black"/>
<path d="M389.16 51.6198C388.637 51.4509 388.084 51.3974 387.538 51.4631C386.993 51.5287 386.468 51.7118 386 51.9998C386.382 51.0841 386.513 50.0831 386.38 49.0998C386.02 47.4798 383.66 46.7398 381.72 49.0998C381.6 47.8198 381.02 46.9398 380 46.7598C377.46 46.2798 376.36 51.1198 375.8 53.6598C374.48 52.6798 372.32 51.0198 371.24 52.3198C370.934 52.6461 370.729 53.0531 370.647 53.4925C370.566 53.932 370.612 54.3857 370.78 54.7998C371.558 56.1589 372.665 57.3006 374 58.1198C373.62 58.9998 372 61.3198 371.16 62.6798C370.48 62.4798 369.04 62.0998 368.74 62.6798C361.72 72.2398 342.74 94.3998 330.92 93.9398C312.66 93.2398 289.68 84.3998 287.38 84.7198L284.16 77.6598C287.702 75.2343 290.362 71.7254 291.74 67.6598C293.983 61.4544 295.002 54.873 294.74 48.2798C294.755 46.1427 294.655 44.0062 294.44 41.8798C302.88 41.3198 308.44 31.3798 301.86 23.1598C301.225 22.1743 300.399 21.3264 299.43 20.6667C298.461 20.007 297.37 19.549 296.22 19.3198C294.865 19.2492 293.508 19.4324 292.22 19.8598C284.22 21.8598 284.1 16.7998 278.62 15.4398C276.115 15.0202 273.543 15.2898 271.18 16.2198C263.18 19.0198 264.74 23.4798 261.04 27.1998C259.04 29.1998 250.5 26.3798 247.04 32.0598C243.36 38.2798 243.7 51.4398 249.04 56.5998C250.226 57.6654 251.535 58.5852 252.94 59.3398C254.236 60.6645 255.751 61.754 257.42 62.5598C258.98 65.7398 260.76 74.8798 261.42 78.3398L260.8 83.5398C256.535 84.2102 252.329 85.2133 248.22 86.5398C241.488 88.7189 234.957 91.4758 228.7 94.7798C217.3 100.78 218.7 100.66 218.3 100.02C216.918 98.5153 215.448 97.0928 213.9 95.7598C202.98 86.5598 191.14 78.7198 177.16 76.4198L175.52 67.1198C179.92 63.5198 182.32 56.2598 182.4 51.1198C184.04 51.7998 185.34 50.5998 186.2 49.1198C186.44 48.6798 187.94 49.1198 189.1 46.5198C189.301 45.9778 189.301 45.3819 189.1 44.8398C189.501 44.6002 189.845 44.2757 190.107 43.889C190.37 43.5024 190.544 43.063 190.618 42.6017C190.693 42.1404 190.665 41.6684 190.538 41.2189C190.41 40.7694 190.186 40.3533 189.88 39.9998C190.496 39.6495 191.024 39.1627 191.422 38.5768C191.821 37.9909 192.08 37.3214 192.18 36.6198C192.62 33.9998 192.02 31.6398 189.5 30.8198C189.5 30.2398 189.92 29.2798 189.92 29.0798C189.942 28.1485 189.776 27.2223 189.433 26.3564C189.089 25.4905 188.575 24.7027 187.92 24.0398C185.14 21.6598 184.26 21.8598 182.52 22.0398C182.52 20.8398 183.28 20.0398 182.02 18.3998C181.054 17.2849 179.767 16.4947 178.336 16.1368C176.904 15.779 175.397 15.8708 174.02 16.3998L173.52 16.5598C173.207 15.7739 172.732 15.0629 172.126 14.4735C171.519 13.8841 170.795 13.4296 170 13.1398C167.5 12.1998 165.78 13.4198 163.68 14.5198C160.54 11.7198 154.54 13.2198 151.32 15.1598C149.86 16.0398 149.72 17.5998 149.14 18.3198C147.897 18.2292 146.659 18.5527 145.62 19.2398C144.7 19.8198 143.84 20.6598 143.1 21.2398C142.612 21.6182 142.21 22.0952 141.92 22.6398C141.301 23.6566 140.944 24.8111 140.88 25.9998C140.388 26.1176 139.921 26.3206 139.5 26.5998C137.902 28.0303 136.779 29.9142 136.28 31.9998C136.062 33.1538 136.173 34.3459 136.6 35.4398C136.6 35.5598 136.8 35.7998 136.86 35.9198C136.46 36.4998 135.42 36.9598 135.22 38.5198C135.02 40.0798 135.08 43.1398 136.6 44.0598C137.24 44.4398 138.6 44.8398 139.08 45.1398C139.004 45.9581 139.004 46.7816 139.08 47.5998C139.6 50.9798 142.94 52.1998 146.38 51.6998L147.32 52.1798C147.685 55.7429 148.631 59.2222 150.12 62.4798C151.23 64.6317 152.903 66.4425 154.96 67.7198L154 76.2398C149.226 76.9373 144.536 78.1167 140 79.7598C126.26 84.7798 118.24 91.2998 111.14 102.62C101.36 94.5198 84.8 82.3798 72 82.5998C72.0822 81.7351 72.0822 80.8645 72 79.9998C72 79.4198 71.68 77.6398 71.14 77.3798C71.14 76.3998 70.98 75.3798 70.9 74.4398C75.42 81.1198 84.64 77.5798 83.62 73.0198C84.7607 73.0954 85.9027 72.8928 86.9479 72.4294C87.993 71.9661 88.91 71.2559 89.62 70.3598C90.3092 69.375 90.6789 68.2019 90.6789 66.9998C90.6789 65.7977 90.3092 64.6247 89.62 63.6398C89.4544 63.3731 89.2524 63.1308 89.02 62.9198C92.14 62.1198 93.22 60.7398 93.62 58.7598C93.9419 57.245 93.8239 55.6698 93.28 54.2198C93.6359 54.044 93.9713 53.8294 94.28 53.5798C95.1967 52.7038 95.8187 51.5647 96.06 50.3198C96.5375 45.986 95.5972 41.6141 93.38 37.8598C92.6615 36.608 91.4858 35.6832 90.1 35.2798C89.8398 34.0892 89.6858 32.8777 89.64 31.6598C89.31 29.7687 88.5311 27.9844 87.3688 26.4567C86.2064 24.9289 84.6945 23.7023 82.96 22.8798C81.2794 22.0919 79.4553 21.6563 77.6 21.5998C76.8207 21.5352 76.0366 21.6375 75.3 21.8998C74.025 20.3575 72.3507 19.1952 70.46 18.5398C66.7907 17.8583 62.9987 18.4809 59.74 20.2998C59.08 20.7398 58.56 21.5998 57.98 22.0198C56.556 21.4084 55.0123 21.1267 53.4642 21.196C51.916 21.2653 50.4036 21.6836 49.04 22.4198C47.5924 23.0541 46.288 23.9747 45.2053 25.1261C44.1227 26.2775 43.2841 27.636 42.74 29.1198C41.9 31.1198 41.14 34.3998 42.42 36.1198C42.4935 36.2151 42.5603 36.3153 42.62 36.4198C41.86 37.7598 40.12 38.4198 39.54 42.1398C39.3037 44.0058 39.3781 45.8981 39.76 47.7398C39.8664 48.1935 40.1206 48.5989 40.4827 48.8921C40.8448 49.1854 41.2941 49.35 41.76 49.3598C41.14 55.3598 41.24 63.3598 44.52 68.5398C45.3365 69.7515 46.2894 70.8654 47.36 71.8598C48.4783 72.9555 49.8536 73.7532 51.36 74.1798V77.7398C50.36 78.2998 51.06 81.4798 50.64 83.3998C42.52 82.8398 31.16 84.7198 24.86 89.9198C15.14 97.9998 11.18 109.4 10.14 122C8.71998 139.38 18.14 150.14 32.76 152C33.6785 155.042 34.76 158.033 36 160.96C29.8225 172.543 25.3049 184.938 22.58 197.78C20.58 208.66 19.64 225.9 19.46 242.44C19.46 250.32 19.46 279.88 22.1 287.24C22.52 288.4 24.32 289.02 25.5 289.36C28.7814 290.219 32.1249 290.821 35.5 291.16C36.34 308.72 38.84 375.58 38.84 375.68C35.4035 377.519 32.2398 379.828 29.44 382.54C28.9951 382.936 28.6615 383.442 28.472 384.006C28.2826 384.571 28.244 385.176 28.36 385.76C28.566 386.279 28.9525 386.707 29.4486 386.964C29.9446 387.221 30.5168 387.291 31.06 387.16C34.38 386.86 43.32 384.18 47.36 383.44C47.46 384.3 47.6 385.14 48.44 385.44C49.88 385.94 52.72 386.2 53.76 384.9C54.8 383.6 54.18 380.2 54.32 378.74C54.44 377.66 63.56 314.74 66.68 293.16H69.18C73.02 313.94 83.52 373.36 83.54 373.46C81.4609 375.04 79.4898 376.757 77.64 378.6C76.1 380.16 73.52 382.96 74.54 384.88C75.56 386.8 77.96 385.82 79.98 385.08C83.98 383.68 89.98 380.98 93.04 379.98C93.26 380.8 93.52 381.62 94.38 381.8C95.5733 381.98 96.7907 381.919 97.96 381.62C99.66 381.12 99.96 380.06 99.96 378.3C99.22 369.44 99.2 397.38 99.8 292.76C102.018 292.67 104.215 292.301 106.34 291.66C112 288.88 111.48 207.66 104.12 182.1C103.62 180.34 100.46 171.16 98.22 165.46C98.2903 165.266 98.2903 165.054 98.22 164.86C97.5624 163.203 96.8214 161.581 96 160C96.6 152.64 97.24 138.44 97.84 134.14L102.82 137.56C103.228 139.169 103.805 140.731 104.54 142.22C105.359 144.37 106.675 146.295 108.38 147.84C110.534 149.825 113.098 151.312 115.891 152.197C118.683 153.081 121.636 153.342 124.54 152.96H127.9C131.78 176 130.66 173.58 131.24 174.16C116.5 224.96 111.74 321.32 113.74 370.16C113.74 370.392 113.817 370.617 113.96 370.8C114.98 372.1 121.34 372.8 123.44 373.16C119.495 375.263 115.741 377.706 112.22 380.46C110.44 382.2 112.78 385.46 114.96 386.02C116.16 386.34 132.48 384.02 133.72 383.84C133.88 384.6 134.24 385.34 135 385.48C137.139 385.848 139.31 386.002 141.48 385.94C142.36 385.94 143.48 385.74 143.68 384.9C144.348 381.571 144.736 378.193 144.84 374.8C146.26 374.8 147.68 374.8 148.14 374.4C152.14 370.4 170 268.62 171.46 260.4C171.956 257.642 172.084 254.831 171.84 252.04C168.94 217.74 170.02 231.86 169.56 218.64C169.579 218.561 169.624 218.491 169.687 218.441C169.751 218.391 169.829 218.364 169.91 218.364C169.991 218.364 170.069 218.391 170.133 218.441C170.196 218.491 170.241 218.561 170.26 218.64C171.6 234.36 172.4 234.9 173.48 255.62C173.48 257.04 189.78 368.56 192.72 371.48C194.286 372.128 195.966 372.454 197.66 372.44C197.469 376.746 197.811 381.058 198.68 385.28C198.736 385.438 198.823 385.584 198.936 385.708C199.05 385.831 199.187 385.931 199.34 386C200.8 386.72 206.26 386 207.34 385.86C207.683 385.73 207.984 385.509 208.21 385.219C208.436 384.93 208.578 384.584 208.62 384.22C210.32 384.46 226.2 386.7 227.36 386.4C229.54 385.84 231.9 382.58 230.1 380.82C225.935 377.635 221.505 374.812 216.86 372.38C219.26 372.2 224.3 371.76 226.38 370.54C229.52 368.68 226.52 229.16 201.32 171.94C201.78 171.2 203.54 150.66 203.62 149.74C209.942 149.526 216.067 147.491 221.26 143.88L229.26 141C224.388 159.562 220.734 178.422 218.32 197.46C217.86 201.22 215.54 219.9 218.04 222.7C218.298 222.99 218.654 223.175 219.04 223.22C220.18 223.32 224.74 223.72 229.6 224.02C229.6 281.4 235.24 312.2 244.34 372.62C244.368 372.807 244.462 372.978 244.605 373.103C244.748 373.227 244.93 373.297 245.12 373.3H245.64C246.017 376.086 246.626 378.835 247.46 381.52C248.72 384.06 268.26 384 271.02 383.12C271.502 382.873 271.884 382.468 272.102 381.973C272.321 381.477 272.362 380.922 272.22 380.4C271.42 376.84 264.22 376.06 260.82 373.5H262C262.184 373.505 262.365 373.445 262.51 373.332C262.656 373.219 262.759 373.06 262.8 372.88L278.1 296.3C278.28 297.42 289.04 374.3 289.04 374.3C289.074 374.501 289.18 374.683 289.338 374.812C289.496 374.941 289.696 375.008 289.9 375H291.48C291.761 377.818 292.215 380.617 292.84 383.38C292.871 383.507 292.93 383.625 293.013 383.725C293.096 383.826 293.201 383.906 293.32 383.96C295.32 384.9 312.9 385.96 315.8 384.38C316.327 384.094 316.728 383.622 316.924 383.056C317.12 382.489 317.097 381.87 316.86 381.32C316.358 379.927 315.462 378.711 314.28 377.82C311.86 376.48 307.64 376.18 305.38 375H306.5C306.691 374.989 306.874 374.916 307.021 374.794C307.169 374.672 307.273 374.506 307.32 374.32C307.32 374.32 313.14 352.94 316.56 303.76C318.56 275.08 319.12 245.76 318.9 217.4C321.46 217.6 325.82 217.8 327.98 217.7C328.58 217.7 329.16 217.7 329.42 217.12C331.74 212.5 329.98 166.58 328.68 155C328.56 153.88 325.7 134.86 325.32 132.38C331.98 132.12 341.6 130.7 347.06 126.8C375.06 106.8 380.4 72.6398 382.68 68.0598C382.9 67.5798 382.36 67.3398 381.02 66.6798C381.789 64.3968 382.705 62.1655 383.76 59.9998C386.54 58.4598 389.76 56.6998 389.98 53.5198C390.086 53.1572 390.063 52.7688 389.913 52.4218C389.763 52.0749 389.497 51.7912 389.16 51.6198V51.6198ZM189.7 31.1998C189.54 31.1998 189.5 31.0798 189.5 30.8798C189.5 30.6798 189.88 31.1998 189.7 31.1998ZM263.32 107.2C273.2 107.82 279.08 107.9 289.12 107.84C289.76 111.72 290.48 115.96 291.26 120.46C285.88 120.46 267.64 120.66 262.9 120.58C263.12 116.18 263.28 111.68 263.32 107.24V107.2ZM260.7 149.06C272.34 149.74 280.98 149.92 296.44 149.6C297.48 155.3 298.56 161.06 299.52 166.12C290.16 166.4 268.56 166.78 258.84 166.5C259.22 163.32 260 155.6 260.7 149.1V149.06ZM258 172.94C273.24 173.82 285.44 173.86 300.94 173.4C301.7 177.24 302.44 180.96 303.16 184.46C285.48 185.14 268.18 185.18 255.88 184.94C256.693 180.98 257.4 176.98 258 172.94ZM295.14 142.4C289.14 142.52 267.14 142.76 261.3 142.68C261.82 136.96 262.22 131.78 262.52 127.08C272.12 127.68 278.64 127.9 292.52 127.74C293 130.38 294.76 140.2 295.14 142.4ZM286.54 88.9998C286.78 92.2798 287.5 97.3598 288 100.62C282.9 100.62 267.3 100.8 263.3 100.74C263.26 96.6342 262.986 92.5343 262.48 88.4598C267.88 95.7198 282.46 94.7198 286.54 88.9998V88.9998ZM254.54 191.32C271.248 192.328 287.998 192.455 304.72 191.7C305.48 195.22 306.18 198.42 306.84 201.22C303.68 201.04 266.32 199.22 252.72 198.56C253.28 196.28 253.88 193.86 254.48 191.32H254.54ZM258.92 61.8198C258.22 60.4198 253.78 59.8198 253.36 56.2798C252.88 52.1398 257.7 51.9998 259.36 53.8598C259.5 53.9998 260.48 55.3198 260.6 55.4798C261.64 56.8798 262.6 56.9198 262.92 54.9198C263.38 51.1998 262.24 43.7598 266.58 44.5398C269.681 45.5125 272.869 46.1823 276.1 46.5398C282.24 47.0998 287.12 46.5398 291.08 42.1398C291.52 42.0398 292.98 41.9798 293.5 41.9398C293.682 44.0546 293.735 46.1785 293.66 48.2998C293.796 54.7199 292.682 61.1052 290.38 67.0998C287.2 74.7198 282.8 76.5598 282.8 76.5598C282.698 76.5988 282.605 76.6578 282.526 76.7334C282.447 76.8089 282.383 76.8995 282.34 76.9998C282.16 77.4598 282.1 76.9998 285.86 85.4198C286.66 92.6798 265.16 95.6398 262.38 84.2398L263.06 78.4198C263.14 77.9998 260.76 65.5598 258.86 61.8198H258.92ZM214.92 97.8198C221.244 104.099 225.602 112.084 227.46 120.8C228.64 126.8 228.14 131.84 226.18 135.3C224.896 137.522 223.292 139.544 221.42 141.3C219.458 143.306 217.064 144.838 214.42 145.78C208.867 147.816 202.91 148.502 197.04 147.78C189.233 146.793 181.525 145.14 174 142.84C174 142.24 173.88 141.6 173.82 140.84L180.72 138.32C182.041 137.952 183.321 137.449 184.54 136.82C185.24 136.46 185.3 135.4 185.38 134.5C185.72 131.22 185.04 131.66 186.04 130.86C188.28 129.1 194.44 127.38 197.12 126.62C198.02 126.38 199.32 126.18 198.92 125.32C198.793 124.091 198.29 122.932 197.48 122C193.26 104.12 193.98 104.18 193.3 104.3C193.254 104.304 193.209 104.318 193.169 104.342C193.129 104.365 193.094 104.397 193.067 104.435C193.041 104.473 193.023 104.516 193.014 104.562C193.006 104.608 193.008 104.655 193.02 104.7C193.92 110.02 195.26 116.9 196.22 121.54L193.74 121.18C193.32 121.18 192.9 121.18 192.8 120.98C192 119.32 192.34 117.36 190.42 116.4C190.22 116.265 189.994 116.174 189.757 116.132C189.519 116.091 189.276 116.099 189.042 116.158C188.808 116.216 188.589 116.323 188.399 116.472C188.21 116.62 188.053 116.807 187.94 117.02C186.9 119.02 188.16 123.5 187.94 123.44C186.875 123.876 185.76 124.179 184.62 124.34C184.574 124.157 184.492 123.984 184.379 123.833C184.265 123.682 184.123 123.555 183.96 123.46C179.902 121.477 175.68 119.851 171.34 118.6C170.4 110.72 169.16 100.8 168.72 97.4798C168.873 97.4085 169.015 97.314 169.14 97.1998C169.846 95.8077 170.364 94.3282 170.68 92.7998C171.02 93.1798 171.3 93.5398 171.92 93.2998C177.346 89.3567 182.473 85.0182 187.26 80.3198C197.406 84.5074 206.76 90.399 214.92 97.7398V97.8198ZM189.6 118C191.04 118.82 190.26 121.26 191.88 122.48C193.503 122.956 195.189 123.185 196.88 123.16C197.277 123.819 197.529 124.556 197.62 125.32C196.06 125.8 188.48 127.48 185.32 129.66C185.255 128.15 185.088 126.647 184.82 125.16C186.46 125.02 188.52 125.16 189.12 124.1C189.72 123.04 188.7 117.46 189.6 118ZM185.74 79.9998C182.16 83.0998 174.14 89.7398 171.74 91.4998C170.54 90.1598 167.4 86.4398 166.52 85.0798C168.52 83.3598 175.92 78.3598 177 77.7598C179.988 78.1147 182.922 78.8264 185.74 79.8798V79.9998ZM154.24 77.6198L164 85.1398C162.52 86.7198 158.9 89.8598 157.28 91.4998C155 89.8598 148.78 83.2798 145.28 79.6398C148.219 78.7694 151.212 78.0946 154.24 77.6198V77.6198ZM148.8 51.1398C148.52 50.7398 148.48 50.8598 146.44 49.7798C145.1 48.6798 143.48 47.7798 142.88 46.1398C142.88 44.7798 143.3 43.0998 144.72 43.1798C145.794 43.4272 146.79 43.9356 147.62 44.6598C148.528 44.9576 149.504 44.9777 150.423 44.7176C151.342 44.4575 152.163 43.929 152.78 43.1998C153.473 41.9517 153.68 40.4912 153.36 39.0998C154.676 38.9821 155.895 38.3583 156.76 37.3598C157.187 36.4966 157.445 35.5598 157.52 34.5998C159.39 35.1313 161.389 34.9825 163.16 34.1798C164.371 33.6582 165.475 32.9194 166.42 31.9998C166.629 32.526 166.905 33.0234 167.24 33.4798C167.551 33.9554 167.985 34.3383 168.495 34.5882C169.005 34.8381 169.574 34.9458 170.14 34.8998C170.846 34.7878 171.525 34.5435 172.14 34.1798V34.9798C172.129 35.5933 172.253 36.2016 172.503 36.7619C172.753 37.3223 173.122 37.8212 173.586 38.2234C174.049 38.6257 174.595 38.9215 175.185 39.0902C175.774 39.2589 176.394 39.2963 177 39.1998C176.988 39.3329 176.988 39.4668 177 39.5998C177.2 40.6798 176.78 43.9398 178.28 44.3198C179.78 44.6998 178.96 40.9598 181.84 40.4998C182.357 40.3735 182.903 40.4324 183.381 40.6662C183.86 40.9 184.242 41.294 184.46 41.7798C185.02 43.5798 184.46 44.3798 183.52 46.1598L182.9 46.8598C181.94 47.8998 180.9 48.9998 180.9 49.9998C180.96 53.059 180.381 56.0971 179.2 58.9198C178.184 61.7811 176.398 64.307 174.04 66.2198C173.923 66.3101 173.831 66.4298 173.775 66.5668C173.719 66.7038 173.7 66.8531 173.72 66.9998L175.36 76.6198L165 83.6598C163.18 82.2598 165.6 84.3398 155.64 76.6398L156.72 67.3398C156.739 67.1692 156.707 66.9969 156.629 66.8441C156.55 66.6913 156.429 66.5647 156.28 66.4798C149.1 62.4598 149.66 52.5198 148.8 51.1398V51.1398ZM125.6 88.9398C131.072 85.0213 137.154 82.0343 143.6 80.0998C147.261 84.3128 151.154 88.3189 155.26 92.0998C156.14 92.8598 157.26 93.7998 158.04 92.9998C158.32 92.6798 158.74 92.2598 159.22 91.7798C159.719 93.5154 160.306 95.2243 160.98 96.8998C161.06 97.0481 161.168 97.1791 161.298 97.2855C161.429 97.3919 161.579 97.4715 161.74 97.5198C161.52 100.1 160.98 107.52 160.36 115.74C154.015 114.378 147.526 113.8 141.04 114.02C141.04 113.5 141.68 107.34 141.7 107.14C141.7 106.06 141.7 104.64 141.82 104.08C141.844 103.992 141.832 103.899 141.787 103.82C141.742 103.741 141.668 103.684 141.58 103.66C141.492 103.636 141.399 103.648 141.32 103.693C141.242 103.738 141.184 103.812 141.16 103.9C139.38 107.52 139.7 110.08 139.94 114.08C135.466 114.301 131.082 115.409 127.04 117.34C126.958 117.382 126.896 117.456 126.868 117.544C126.84 117.632 126.848 117.728 126.89 117.81C126.932 117.892 127.006 117.954 127.094 117.982C127.182 118.01 127.278 118.002 127.36 117.96C141.36 111.12 166.76 117.6 180.26 123.42C181.202 123.806 182.117 124.253 183 124.76C183.616 127.914 183.804 131.136 183.56 134.34C183.56 135.24 183.56 135.46 181.96 136.08C180.82 136.54 179.46 136.86 178.62 137.18C175.88 138.2 173.24 139.18 170.62 140.18C155.83 144.927 140.718 148.603 125.4 151.18C120.42 151.18 113.86 150.26 110.2 146.82C94.36 132 110.92 99.0198 125.6 88.9398V88.9398ZM50.64 71.9998C48.7812 70.9279 47.1936 69.443 46 67.6598C42.88 62.8198 42.84 54.8998 43.36 49.1798C46.1541 48.3102 48.6941 46.7725 50.76 44.6998C52.9959 42.4148 54.9499 39.87 56.58 37.1198L57.7 34.9598C59.7275 40.146 63.1976 44.6432 67.7 47.9198C69.2654 48.6365 70.959 49.031 72.68 49.0798C72.6408 50.6484 72.8089 52.2153 73.18 53.7398C73.2199 53.8206 73.2759 53.8923 73.3447 53.9506C73.4134 54.0089 73.4933 54.0525 73.5794 54.0787C73.6656 54.1049 73.7563 54.1133 73.8458 54.1031C73.9353 54.093 74.0218 54.0647 74.1 54.0198C74.98 53.5398 75.32 50.9598 76.68 49.1798C77.04 48.6798 77.46 48.2998 77.98 48.4198C78.5284 48.5038 79.0493 48.7163 79.5 49.0398C81.5 50.5198 79.9 56.4398 76.16 58.2798C75.04 58.8398 69.2 65.6398 68.82 67.7798C68.5698 68.9553 68.6318 70.1758 69 71.3198C69.12 73.0598 69.32 75.3198 69.46 77.3198C65.76 77.3198 56.74 77.3198 53.04 77.4998C53.22 72.5598 53.32 73.0798 50.64 71.9998V71.9998ZM88 291.58H72.9C75.2 263.1 78 193.26 77.4 168.52C80.0666 168.4 82.4666 168.24 84.6 168.04C89.16 191.62 91.7 268.52 88 291.58V291.58ZM38 289.76C35.84 265.9 38 188.46 43.72 167.76C44.72 167.9 51.88 168.54 51.88 168.54C48.84 192.98 45.72 263.12 46.8 290.54C43.56 290.3 40.6 290 37.88 289.76H38ZM60.12 167.08L52.6 166.78C52.5825 164.624 52.7364 162.471 53.06 160.34L55.76 160.14L61.6 160C61.3123 162.398 60.8171 164.767 60.12 167.08ZM36.96 160.5L51.44 160.22C51.0345 162.423 50.8469 164.66 50.88 166.9C45.4465 166.856 40.0292 166.3 34.7 165.24C36.18 162 36.8 160.9 36.96 160.5ZM53.26 290.9C52.6 265.94 56.66 189.58 59.26 168.64C62 168.64 64.04 168.78 69.72 168.64C69.72 178.12 66.88 279.64 66.22 291.34C62.8 291.34 54.14 290.96 53.26 290.9V290.9ZM61.66 167.1C62.1507 164.765 62.3921 162.385 62.38 160C75.52 159.76 88.38 159.44 94.18 160.22C94.9701 161.613 95.6393 163.072 96.18 164.58C84.88 167 72.2 167.1 61.66 167.1V167.1ZM24 287C20.54 284.8 19.42 222.72 23.66 197.96C25.8165 186.878 29.3997 176.121 34.32 165.96L36.42 166.4C30.82 186.62 28.58 260.1 31.36 288.82C28.8344 288.556 26.3576 287.943 24 287V287ZM52.94 377C47.38 377.76 44.38 378.2 42.2 378.68C40.949 378.797 39.6981 378.456 38.68 377.72C40.32 376.74 40.68 376.88 40.68 375.94C40.86 372.06 36.9 298.94 36.42 291.2C45.54 292.24 56.94 292.8 66.06 293.06C62.96 312.14 54.36 367.22 52.88 377.06L52.94 377ZM97.7 372.88C92.62 374.3 89.44 375.22 87.3 376.02C86.0753 376.31 84.7866 376.139 83.68 375.54C85.12 374.4 85.42 374.48 85.34 373.54C84.98 369.54 70.88 297.2 70.08 293.18C81.4 293.42 92.08 293.3 99.02 292.82C98.56 315.28 97.76 363.72 97.64 372.94L97.7 372.88ZM102.78 182.46C109.46 206.12 110.14 278.46 105.64 290.08C103.96 290.92 96.42 291.24 94.58 291.32C98.58 266.42 96.58 191.32 92 167.06C93.88 166.76 95.56 166.44 97.12 166.1C99.34 172.16 102.26 180.88 102.72 182.52L102.78 182.46ZM88.66 124C87.8 123.22 86.96 122.52 86.24 121.76C86.1843 121.688 86.1024 121.642 86.0124 121.63C85.9224 121.619 85.8316 121.644 85.76 121.7C85.6884 121.756 85.6418 121.837 85.6306 121.927C85.6193 122.017 85.6443 122.108 85.7 122.18C89.12 127.78 93.86 130.48 96.4 132.78C95.76 135.22 95.1 149.84 94.4 158.5C89.12 157.28 61.54 158.72 52.28 158.72C52.069 158.723 51.8677 158.809 51.72 158.96C44.44 159.3 38.7 159.64 37.1 159.74C36.14 157.5 34.94 153.88 34.2 151.58C37.4432 152.162 40.7666 152.135 44 151.5C44.0556 152.716 44.3194 153.913 44.78 155.04C45.78 155.92 79.06 153.54 80.12 153.32C80.84 153.16 80.86 152.16 80.92 151.32C81.1 149.32 81.22 144.92 81.3 139.76C81.6095 139.636 81.8885 139.447 82.1177 139.205C82.3469 138.963 82.5207 138.674 82.6273 138.359C82.7338 138.043 82.7704 137.708 82.7346 137.376C82.6988 137.045 82.5915 136.726 82.42 136.44C82.6539 136.142 82.8245 135.799 82.9213 135.433C83.0181 135.067 83.039 134.685 82.9829 134.31C82.9267 133.936 82.7945 133.577 82.5946 133.255C82.3946 132.933 82.131 132.656 81.82 132.44C82.0785 132.188 82.2752 131.879 82.3947 131.539C82.5142 131.198 82.5532 130.834 82.5086 130.476C82.4641 130.117 82.3372 129.774 82.1379 129.473C81.9387 129.172 81.6724 128.921 81.36 128.74C81.36 121.52 81.36 114.48 81.1 110.54C80.98 107.3 80.88 106.94 80.38 106.54C79.4 105.94 75.18 106.18 73.28 106.26C73.3063 105.412 73.0763 104.575 72.62 103.86C71.7 102.96 67.64 103.86 65.28 103.86C64.76 102.2 64.5 100.96 62.66 100.1C61.7543 99.7799 60.762 99.8073 59.8754 100.177C58.9887 100.546 58.2706 101.231 57.86 102.1C57.86 102.3 57.28 103.94 57.16 104.48C55.0139 104.642 52.8777 104.916 50.76 105.3C50 105.54 49.94 107.14 49.92 108.26C42.3 109.06 41.8 109.06 41.66 109.84C41.52 110.62 42.08 123.34 42.12 124.4C40.25 124.637 38.3988 125.005 36.58 125.5C36.9584 123.016 37.1855 120.511 37.26 118C37.26 116.9 37.36 112.2 36.7 112.18C36.04 112.16 35.64 116.78 35.58 117.7C35.46 119.1 35.28 124.32 35.38 125.88C34.54 126.14 33.74 126.42 32.92 126.74C32.8351 126.772 32.7664 126.836 32.7289 126.918C32.6913 127.001 32.6882 127.095 32.72 127.18C32.7518 127.265 32.816 127.333 32.8986 127.371C32.9811 127.408 33.0751 127.412 33.16 127.38C44.46 123.48 59.76 125.66 68.14 129.86L68.52 138.28C61.28 143.34 49.76 149.6 40.96 150.72C38.3647 151.02 35.7408 150.966 33.16 150.56C18 148.6 10.18 137.74 11.28 122.14C12.14 110 16 98.2598 25.32 90.4798C31.32 85.4998 42.78 83.7998 50.58 84.4798C52.58 84.6398 51.5 80.3198 52.02 78.7598C52.78 78.6398 55.2 78.5998 56.02 78.5798C55.9207 79.958 55.9207 81.3416 56.02 82.7198C56.02 83.2998 56.44 85.4798 56.96 85.3198C57.48 85.1598 57.68 83.4598 57.7 82.9798C57.72 82.4998 57.7 82.4398 57.52 78.5798H64.18C64.0995 79.9119 64.0995 81.2477 64.18 82.5798C64.18 83.1598 64.6 85.3398 65.12 85.1798C65.64 85.0198 65.84 83.3198 65.86 82.8398C65.88 82.3598 65.86 81.3598 65.68 78.6198H70.56C70.7601 79.2681 70.8678 79.9414 70.88 80.6198C70.88 82.9398 70.48 83.2798 70.88 83.7398C71.96 84.9598 81.76 80.1198 110.42 103.98C105.08 112.98 100.86 124.76 102.42 135.14C97.76 132 98.66 132.98 88.66 124V124ZM43.56 124.18C43.36 117.48 43.2 111.36 43.2 110.62C44.78 110.38 48.36 110.02 49.94 109.86C49.94 112.8 50.06 113 51.94 113.2C55.52 113.62 71.3 113.2 72.96 111.78C73.1106 111.658 73.2276 111.5 73.3 111.32C73.4268 110.218 73.4535 109.107 73.38 108C75.3318 107.89 77.2882 107.89 79.24 108C79.62 111.56 79.66 124.7 79.66 128.28C78.909 128.287 78.1623 128.394 77.44 128.6C77.72 126.96 78.14 124.3 76.48 123.94C76.0356 123.813 75.5638 123.819 75.1229 123.958C74.682 124.096 74.2916 124.361 74 124.72C73.1338 126.056 72.6243 127.591 72.52 129.18C71.6042 129.183 70.6892 129.129 69.78 129.02C69.7491 128.912 69.6957 128.811 69.6233 128.725C69.5509 128.639 69.4612 128.569 69.36 128.52C61.3051 124.787 52.3888 123.308 43.56 124.24V124.18ZM81.16 135.24C80.38 135.7 79.88 135.38 78.48 135.56C78.2625 135.56 78.0539 135.646 77.9001 135.8C77.7464 135.954 77.66 136.162 77.66 136.38C77.66 136.597 77.7464 136.806 77.9001 136.96C78.0539 137.113 78.2625 137.2 78.48 137.2C79.1449 137.268 79.8151 137.268 80.48 137.2C80.64 137.2 81.22 137.32 81.22 137.48C81.22 139.3 77.64 138.6 76.06 137.68C74.1026 137.56 72.1386 137.749 70.24 138.24L69.84 130C70.9282 130.291 72.063 130.366 73.18 130.22C73.3347 130.133 73.4495 129.99 73.5 129.82C73.96 128.14 74.34 125.04 76.1 125.48C76.2034 126.739 76.0746 128.007 75.72 129.22C75.52 130.46 76 130.74 76.94 130.66C77.78 130.283 78.681 130.059 79.6 130C80.12 130 80.64 130 80.8 130.6C80.96 131.2 80.44 131.42 79.94 131.6C79.44 131.78 77.48 132.06 77.28 132.1C77.0823 132.162 76.9137 132.294 76.8053 132.47C76.6969 132.647 76.656 132.857 76.69 133.061C76.7241 133.266 76.8309 133.451 76.9908 133.583C77.1506 133.715 77.3527 133.785 77.56 133.78C79.98 133.52 79.56 133.4 80.28 133.56C80.5936 133.633 80.8722 133.813 81.069 134.068C81.2657 134.323 81.3685 134.638 81.36 134.96C81.3633 135.03 81.3462 135.099 81.3107 135.16C81.2752 135.22 81.2228 135.269 81.16 135.3V135.24ZM70.14 139.06C71.9038 138.826 73.6808 138.706 75.46 138.7C76.7085 139.488 78.1443 139.93 79.62 139.98C79.62 143.56 79.62 149.98 79.38 151.86C75.02 152.32 49.6 154.8 45.24 154.4C45.0091 153.373 44.8553 152.33 44.78 151.28C55.82 149 69.58 140.18 70.14 139.12V139.06ZM142.14 384.08C139.86 384.228 137.571 384.107 135.32 383.72V382.72C135.297 382.48 135.182 382.258 135 382.1C134.46 381.68 134.88 381.98 120.88 383.76L116.3 384.28C115.86 384.28 115.36 384.5 115.36 384.28C114.28 384 112.7 382.1 113.36 381.4C117.097 378.401 121.04 375.668 125.16 373.22C131.38 373.96 138.82 374.48 143.42 374.62C143.216 377.818 142.795 380.999 142.16 384.14L142.14 384.08ZM209.72 372.56C211.58 372.56 213.44 372.46 215.22 372.36C217.92 374.02 226.84 379.52 229.04 381.78C229.4 382.16 229.04 382.9 228.72 383.32C227.44 385.08 226.46 384.64 226.1 384.6C222.7 384.32 211.44 382.74 208.1 382.26C207.984 382.243 207.866 382.25 207.752 382.281C207.639 382.312 207.533 382.365 207.441 382.438C207.35 382.511 207.274 382.602 207.219 382.706C207.163 382.809 207.13 382.923 207.12 383.04V384.04C204.878 384.446 202.594 384.573 200.32 384.42C199.511 380.525 199.096 376.558 199.08 372.58C199.04 372 198.44 372.82 209.74 372.62L209.72 372.56ZM200 170.8C189.74 170.8 140.94 172.02 132.62 172.96C132.42 169.56 130.1 155.58 129.54 152.22C139.193 150.559 148.752 148.396 158.18 145.74C157.945 147.1 157.884 148.484 158 149.86C160.411 152.771 163.089 155.449 166 157.86C166.15 157.979 166.33 158.054 166.521 158.079C166.711 158.104 166.904 158.076 167.08 158C169.94 155.612 172.392 152.775 174.34 149.6C174.423 147.946 174.309 146.287 174 144.66C179.56 146.66 194.64 149.82 202.2 149.7C201.84 153.84 200.32 168.68 200 170.8V170.8ZM221.2 189.26C226.32 154 231.1 142.32 231.2 139.72C234.369 138.342 237.32 136.509 239.96 134.28C240.998 133.359 241.973 132.37 242.88 131.32C243.22 131 242.76 130.5 242.44 130.8C242.12 131.1 241.34 131.52 240.78 131.88C233.98 136.44 232.42 138.1 224.44 140.94C226.183 139.218 227.504 137.117 228.3 134.8C231.8 122.98 226.98 110.8 219.32 101.22C228.454 95.5775 238.17 90.9373 248.3 87.3798C252.295 86.0407 256.387 85.011 260.54 84.2998C260.69 85.1751 260.966 86.0239 261.36 86.8198C264.56 106.48 258.24 163.7 254.48 182.7C252.3 193.74 248.14 209.84 243.36 220.14C243.041 220.903 242.66 221.639 242.22 222.34C239.7 223.18 222.02 221.7 219.28 221.44C217.24 217.74 220.62 193.54 221.24 189.26H221.2ZM305.8 373.26H290.62C290.62 372.66 279.34 292.88 279.02 291.78C280.3 283.56 289.02 239.46 288.72 228.44C288.72 228.35 288.684 228.263 288.62 228.199C288.557 228.136 288.47 228.1 288.38 228.1C288.29 228.1 288.203 228.136 288.14 228.199C288.076 228.263 288.04 228.35 288.04 228.44C288.04 229.6 287.68 231.84 287.2 234.82C279.78 281.14 274.08 307.82 261.32 371.9L245.88 371.74C235.76 307.74 230.8 276.7 230.54 224.1C232.66 224.22 241.46 224.78 243.16 223.92C243.76 223.62 244.38 222.28 244.76 221.5C247.763 214.646 250.237 207.572 252.16 200.34C265.86 201.1 301.06 202.74 307.12 203.06C309.7 215.22 309.88 215.92 310.6 216.18C312.887 216.763 315.224 217.132 317.58 217.28C317.74 257.82 315.62 333.8 305.84 373.16L305.8 373.26ZM381.8 67.9798C379.04 74.4398 373.16 106.76 346.24 125.64C340.98 129.32 331.4 130.64 325 130.82C324.711 127.674 324.108 124.565 323.2 121.54C322.8 120.3 322.2 118.84 321.84 117.96C321.802 117.887 321.741 117.829 321.666 117.795C321.591 117.762 321.507 117.755 321.427 117.776C321.348 117.797 321.278 117.845 321.23 117.911C321.181 117.977 321.156 118.058 321.16 118.14C322.26 126.9 322.44 123.8 323.64 131.72C323.64 131.72 326.94 154.06 327.06 155.16C328.6 169.16 329.58 210.24 328.02 215.94C322.498 216.069 316.976 215.641 311.54 214.66C309.4 207.52 288.46 103.8 288 86.2798C293.3 87.2398 313.74 94.5998 330.86 95.1398C346.14 95.5998 369.12 63.1398 369.32 63.1398C370.9 62.8598 379.62 66.5598 381.82 67.8798L381.8 67.9798ZM388.5 53.3998C388.34 55.9798 385.34 57.7198 383.12 59.0798C382.34 59.5798 380.58 65.5198 380.36 66.3598C377.595 65.0685 374.757 63.9399 371.86 62.9798C373.86 59.9398 375.6 58.3398 374.84 57.6198C373.46 56.3598 370.84 54.6598 372.2 53.2398C372.368 53.2764 372.529 53.337 372.68 53.4198C374.58 54.3198 376.1 56.7598 376.92 55.2598C377.286 53.4973 377.788 51.7655 378.42 50.0798C379.48 47.6198 380.14 48.0798 379.88 50.4798C379.653 52.1202 379.244 53.7302 378.66 55.2798C378.591 55.4973 378.611 55.7333 378.716 55.9358C378.821 56.1383 379.002 56.2909 379.22 56.3598C379.437 56.4288 379.673 56.4085 379.876 56.3035C380.078 56.1985 380.231 56.0173 380.3 55.7998C380.799 54.0301 381.547 52.34 382.52 50.7798C383.5 49.3398 384.68 48.9798 384.64 49.9598C384.329 51.7167 383.647 53.3871 382.64 54.8598C382.382 55.2191 382.224 55.6399 382.18 56.0798C382.148 56.2666 382.181 56.4589 382.274 56.6239C382.368 56.7889 382.515 56.9165 382.692 56.9848C382.869 57.0532 383.064 57.0582 383.244 56.9989C383.424 56.9397 383.578 56.8198 383.68 56.6598C384.281 55.8201 384.95 55.0308 385.68 54.2998C386.86 53.1398 388.58 52.3398 388.52 53.2998L388.5 53.3998Z" fill="black"/>
<path d="M163.26 54.9596C164.08 56.8196 168.56 55.6596 167.68 54.7196C167.616 54.6561 167.53 54.6204 167.44 54.6204C167.35 54.6204 167.264 54.6561 167.2 54.7196C166.933 54.8053 166.647 54.8053 166.38 54.7196C165.834 54.6414 165.302 54.4865 164.8 54.2596V46.7396C164.781 46.661 164.736 46.5911 164.673 46.5411C164.609 46.4911 164.531 46.4639 164.45 46.4639C164.369 46.4639 164.291 46.4911 164.227 46.5411C164.164 46.5911 164.119 46.661 164.1 46.7396C163.382 48.9242 163.077 51.2234 163.2 53.5196C163.15 54 163.17 54.4851 163.26 54.9596ZM157.46 49.9996C157.46 49.4596 157.46 48.8796 157.34 48.3796C157.301 48.1565 157.177 47.9572 156.994 47.8231C156.812 47.689 156.585 47.6304 156.36 47.6596C156.246 47.6766 156.137 47.7161 156.039 47.7759C155.941 47.8357 155.856 47.9145 155.789 48.0077C155.722 48.1009 155.674 48.2066 155.649 48.3186C155.623 48.4305 155.62 48.5465 155.64 48.6596C155.64 49.0196 155.64 49.4396 155.74 50.1196C155.748 50.2325 155.778 50.3428 155.828 50.4441C155.879 50.5455 155.949 50.6359 156.034 50.7101C156.12 50.7844 156.219 50.8412 156.326 50.8771C156.434 50.913 156.547 50.9275 156.66 50.9196C156.773 50.9117 156.883 50.8817 156.985 50.8312C157.086 50.7807 157.176 50.7107 157.251 50.6253C157.325 50.5399 157.382 50.4406 157.417 50.3333C157.453 50.2259 157.468 50.1125 157.46 49.9996V49.9996ZM170.96 49.8596C170.96 50.0877 171.051 50.3064 171.212 50.4677C171.373 50.629 171.592 50.7196 171.82 50.7196C172.048 50.7196 172.267 50.629 172.428 50.4677C172.589 50.3064 172.68 50.0877 172.68 49.8596V48.9596C172.794 48.7972 172.851 48.6009 172.839 48.4026C172.828 48.2042 172.75 48.0155 172.618 47.8672C172.486 47.7188 172.307 47.6195 172.112 47.5855C171.916 47.5514 171.714 47.5846 171.54 47.6796C170.76 48.1796 170.96 49.1796 170.96 49.8596ZM166.92 62.2196C166.201 62.62 165.444 62.9483 164.66 63.1996C164.22 63.1996 164.12 63.8196 164.66 63.8796C165.168 64.1348 165.732 64.2586 166.3 64.2396C166.88 64.171 167.437 63.9715 167.929 63.6562C168.421 63.341 168.835 62.9181 169.14 62.4196C169.387 61.889 169.491 61.3028 169.44 60.7196C169.459 60.6294 169.441 60.5356 169.39 60.4587C169.339 60.3818 169.26 60.3282 169.17 60.3096C169.08 60.291 168.986 60.3091 168.909 60.3597C168.832 60.4103 168.779 60.4894 168.76 60.5796C168.214 61.1974 167.596 61.748 166.92 62.2196V62.2196ZM278.56 63.5796C280.08 64.0596 282.56 64.3796 283.62 63.1796C284.68 61.9796 284.1 58.8596 283.98 57.5396C283.73 54.9475 283.166 52.3954 282.3 49.9396C282.281 49.8494 282.228 49.7703 282.151 49.7197C282.074 49.6691 281.98 49.651 281.89 49.6696C281.8 49.6882 281.721 49.7418 281.67 49.8187C281.619 49.8956 281.601 49.9894 281.62 50.0796C281.62 50.6996 281.9 53.7596 281.96 54.5396C282.343 57.0872 282.477 59.666 282.36 62.2396C281.912 62.543 281.397 62.735 280.86 62.7996C278.86 63.1396 278.4 62.6596 278.3 63.1796C278.288 63.2231 278.286 63.2685 278.293 63.313C278.3 63.3575 278.316 63.4 278.341 63.4378C278.365 63.4755 278.397 63.5077 278.435 63.5321C278.473 63.5565 278.515 63.5727 278.56 63.5796V63.5796ZM275.18 50.3996C275.18 49.7596 273.34 49.4396 272.14 49.6996C270.94 49.9596 269.3 51.2196 269.76 51.6996C270.22 52.1796 275.1 50.9796 275.18 50.3996ZM273.86 55.1796V56.8996C273.86 57.1277 273.951 57.3464 274.112 57.5077C274.273 57.669 274.492 57.7596 274.72 57.7596C274.948 57.7596 275.167 57.669 275.328 57.5077C275.489 57.3464 275.58 57.1277 275.58 56.8996V55.2396C275.585 55.0096 275.501 54.7865 275.344 54.6183C275.187 54.45 274.97 54.35 274.74 54.3396C274.513 54.3394 274.295 54.4266 274.131 54.5831C273.968 54.7395 273.87 54.9532 273.86 55.1796V55.1796ZM290.92 51.2196C291.08 50.9796 290.44 49.6996 288.92 49.2196C287.4 48.7396 286.24 49.4996 286.24 49.8596C286.24 50.2196 290.62 51.6596 290.92 51.2196ZM273 67.8596C272.54 67.9996 272.54 70.8796 275.28 71.6996C276.68 72.0996 278.58 71.8796 278.62 71.3796C278.66 70.8796 275.9 70.2796 275 69.6596C274.1 69.0396 273.38 67.7396 273 67.8596V67.8596ZM288.18 53.9996C288.067 53.9969 287.955 54.0166 287.849 54.0574C287.744 54.0981 287.648 54.1593 287.566 54.2373C287.484 54.3153 287.419 54.4086 287.373 54.512C287.327 54.6153 287.303 54.7267 287.3 54.8396V56.5396C287.332 56.7477 287.437 56.9375 287.596 57.0747C287.756 57.2119 287.96 57.2873 288.17 57.2873C288.38 57.2873 288.584 57.2119 288.744 57.0747C288.903 56.9375 289.008 56.7477 289.04 56.5396V54.8796C289.043 54.765 289.022 54.651 288.98 54.5444C288.938 54.4377 288.875 54.3405 288.795 54.2585C288.715 54.1765 288.619 54.1114 288.514 54.0669C288.408 54.0225 288.295 53.9996 288.18 53.9996V53.9996Z" fill="black"/>
</svg>
