<svg width="400" height="400" viewBox="0 0 400 400" fill="none" xmlns="http://www.w3.org/2000/svg">
<path d="M166.34 127.4C163.1 126.98 134.34 126.98 129.18 127.4C129.092 127.419 129.014 127.471 128.962 127.545C128.91 127.619 128.888 127.71 128.9 127.8C128.918 127.867 128.954 127.928 129.003 127.977C129.052 128.026 129.113 128.061 129.18 128.08C133.82 128.48 163.04 128.66 166.24 128.24C166.7 128.2 166.84 127.46 166.34 127.4ZM301.44 177.44C301.04 177.44 295.9 179.26 297.26 180L298.7 181.2C298.38 181.92 301.52 185.2 299.36 192.92C298.46 192.3 298.44 192.92 298.56 193.12C301.9 196.56 325.76 215.66 331.08 219.12C331.56 219.82 334.6 218.32 335.08 218.16C345.647 213.655 355.962 208.58 365.98 202.96C369.64 200.96 369.6 193.78 365.16 190.96C360.49 187.854 355.627 185.048 350.6 182.56L356.8 177.7C357.24 177.36 357 176.1 355.32 177.46C351.702 171.614 350.238 164.689 351.18 157.88C351.42 157.74 354.1 156.14 352.92 155.62C346.92 153.12 327.04 145.82 320.92 145.44C318.92 145.3 302.92 158.1 301.42 160.68C298.22 166.02 299.2 172.12 301.54 177.5L301.44 177.44ZM299.84 193.22C301.84 191.04 301.22 185.06 300.26 182.42C303 184.62 325.02 201.22 332.02 205.66C335.8 213.66 331.58 217.54 331.72 218.14C320 210 310.46 200.7 299.84 193.22V193.22ZM365.02 192.32C368.36 194.04 367.6 201.2 365.2 202.04C354.32 207.86 343.56 213.1 332.32 218.04C333.796 216.048 334.602 213.639 334.62 211.16L350.02 204.84C350.3 204.7 350.02 204.32 349.8 204.38C344.629 206.108 339.567 208.145 334.64 210.48C334.601 208.536 333.997 206.645 332.9 205.04C337.6 203.18 361.62 190.72 365.02 192.32V192.32ZM331.68 172C337.565 167.127 343.721 162.593 350.12 158.42C349.653 160.852 349.566 163.341 349.86 165.8C348.88 166.12 336.76 175 336.14 175.48C335.88 175.68 336.14 176.1 336.46 175.94L350 166.74C350.42 169.56 352.12 175.98 354.74 177.72C352.08 179.88 338.92 190.3 335.72 190.3C333.321 187.985 331.661 185.012 330.949 181.755C330.237 178.499 330.505 175.104 331.72 172H331.68ZM329.06 154.74C330.46 155.94 324.66 159.32 324.44 159.38C323.78 159.58 323.34 158.9 324.76 157.54C325.48 156.92 328.12 154 329.06 154.76V154.74ZM318.16 158.08C319.16 156.08 323.32 152.76 325.08 151.56C325.167 151.499 325.265 151.457 325.368 151.434C325.471 151.411 325.578 151.409 325.682 151.428C325.786 151.446 325.885 151.485 325.974 151.542C326.063 151.599 326.14 151.673 326.2 151.76C326.261 151.846 326.303 151.944 326.326 152.047C326.349 152.15 326.351 152.257 326.332 152.361C326.314 152.465 326.275 152.564 326.218 152.653C326.161 152.742 326.087 152.819 326 152.88C324.44 154.08 320.2 158.06 319.02 158.88C318.931 158.929 318.832 158.954 318.73 158.954C318.629 158.954 318.529 158.929 318.44 158.88C318.37 158.848 318.307 158.802 318.255 158.745C318.203 158.688 318.162 158.621 318.136 158.549C318.11 158.476 318.099 158.399 318.103 158.322C318.107 158.245 318.127 158.169 318.16 158.1V158.08ZM303.48 161.54C312.06 163.868 320.489 166.72 328.72 170.08C329.24 170.34 329.06 171.22 328.44 171.1C319.866 168.711 311.444 165.805 303.22 162.4C303.129 162.348 303.058 162.268 303.018 162.17C302.979 162.073 302.974 161.966 303.005 161.865C303.035 161.765 303.099 161.678 303.185 161.619C303.272 161.56 303.376 161.532 303.48 161.54ZM302 178.4C311.54 183.78 329.3 190.62 336 191.62C337.34 191.82 348.22 184.18 350 182.88C351.16 184.02 360.82 189.48 363.28 191C359.72 191.18 333.88 203.22 332.02 204.4C320.92 196.1 309.4 187.68 298.02 179.78L302.02 178.4H302ZM166.34 127.4H166.36H166.34ZM198.82 89.2797C198.698 89.2297 198.562 89.2297 198.44 89.2797C197.26 89.9997 190.44 99.2797 189.06 101.02C187.74 99.2197 186.4 97.4397 185.06 95.6997C184.8 95.3797 184.26 95.6997 184.46 96.1197C185.8 98.2597 187.24 100.32 188.7 102.38C188.94 102.7 189.4 102.54 189.6 102.28C190.86 100.68 198.88 90.9997 199.22 89.8997C199.235 89.8327 199.236 89.7635 199.224 89.696C199.212 89.6285 199.186 89.5641 199.149 89.5065C199.112 89.4488 199.064 89.3991 199.007 89.3602C198.951 89.3213 198.887 89.2939 198.82 89.2797V89.2797ZM160.68 131.28C148.68 131.52 135.38 131.28 130.22 131.72C130.114 131.72 130.012 131.762 129.937 131.837C129.862 131.912 129.82 132.014 129.82 132.12C129.82 132.226 129.862 132.328 129.937 132.403C130.012 132.478 130.114 132.52 130.22 132.52C136.42 132.52 155.72 133.16 160.68 132.1C161.1 132 161.02 131.4 160.68 131.28V131.28ZM161.12 111.18C161.52 111.18 161.64 110.5 161.12 110.44C157.12 109.84 133.12 111.02 127.3 111.92C127.194 111.92 127.092 111.962 127.017 112.037C126.942 112.112 126.9 112.214 126.9 112.32C126.9 112.426 126.942 112.528 127.017 112.603C127.092 112.678 127.194 112.72 127.3 112.72C135.14 112.72 152.96 111.5 161.02 111.22L161.12 111.18ZM153.16 115.18C153.5 115.18 153.68 114.5 153.16 114.38C151.16 113.88 131.16 114.38 128.14 114.72C128.093 114.727 128.047 114.744 128.006 114.769C127.965 114.794 127.929 114.827 127.901 114.866C127.873 114.905 127.854 114.95 127.843 114.997C127.833 115.044 127.832 115.092 127.84 115.14C127.851 115.217 127.886 115.29 127.939 115.347C127.993 115.405 128.063 115.444 128.14 115.46C132 115.68 150.8 115.82 153.16 115.18ZM195.8 126.18C196.9 124.58 184.84 125.16 184.32 125.7C183.8 126.24 184.32 134.46 184.32 135.22C184.32 136.4 195.5 136.38 195.94 136.04C196.439 132.785 196.439 129.474 195.94 126.22L195.8 126.18ZM194.94 135.14C193.88 135.14 186.02 135.28 185.38 134.78C185.38 131.96 185.2 129.16 185.1 126.36H195.1C194.74 129.273 194.687 132.215 194.94 135.14V135.14Z" fill="black"/>
<path d="M336.8 181.76C339.6 180.1 342.46 178.48 345.16 176.68C345.54 176.42 345.16 175.74 344.72 175.98L336.5 181.3C336.454 181.345 336.425 181.405 336.418 181.469C336.411 181.534 336.426 181.599 336.461 181.653C336.497 181.707 336.55 181.747 336.612 181.767C336.673 181.786 336.74 181.784 336.8 181.76ZM316.64 203.72C316.4 203.56 316.08 203.94 316.32 204.14C318.32 205.88 328.16 212.76 330.32 214.28C330.6 214.48 330.84 214.02 330.58 213.82C326.38 210.62 321.1 206.4 316.64 203.72V203.72ZM187.08 119.22C188.12 119.22 196.26 120.16 196.18 118.82C196.1 117.48 195.98 109.78 195.46 109.54C195.32 108.2 185.18 109.18 184.24 109.36C183.66 109.36 183.9 117.16 183.94 118.1C184 119.46 186.18 119.18 187.08 119.22V119.22ZM194.94 110V118.42C191.571 118.073 188.18 118.006 184.8 118.22C184.933 115.479 184.879 112.733 184.64 110C186.3 110 193.88 110.26 194.94 110V110ZM329.88 210.44C329.931 210.482 329.994 210.505 330.06 210.505C330.126 210.505 330.19 210.482 330.24 210.44C330.279 210.396 330.301 210.339 330.301 210.28C330.301 210.221 330.279 210.164 330.24 210.12C321.08 203.62 311.98 195.8 302.98 189.7C302.72 189.5 302.32 189.88 302.58 190.14C307.62 194.94 323.36 206.14 329.96 210.54L329.88 210.44ZM355.5 198.96H355.54H355.5ZM196.14 96.3797C196.112 96.2904 196.051 96.2154 195.969 96.1706C195.887 96.1258 195.79 96.1147 195.7 96.1397C195.64 96.154 195.584 96.1835 195.539 96.2256C195.493 96.2676 195.459 96.3207 195.44 96.3797V103.38H184.36C184.166 100.157 183.806 96.9457 183.28 93.7597C186.408 93.905 189.543 93.8248 192.66 93.5197C192.73 93.4971 192.791 93.4509 192.831 93.389C192.871 93.327 192.888 93.2531 192.88 93.1797C192.869 93.1372 192.849 93.0974 192.821 93.063C192.793 93.0286 192.759 93.0003 192.72 92.9797C191.98 92.7397 182.72 91.9397 183 93.5397C182.08 93.5397 183.42 103.54 183.42 103.54C183.9 104.76 185.92 104.34 186.98 104.34C188.04 104.34 195.4 104.52 196 104.34C196.96 103.96 196.42 97.5597 196.2 96.3397L196.14 96.3797Z" fill="black"/>
<path d="M389.4 277.82C363.92 279.38 338.433 280.713 312.94 281.82C312.607 278.173 311.938 274.564 310.94 271.04C336.273 270.373 361.607 269.593 386.94 268.7C387.069 268.684 387.19 268.627 387.284 268.537C387.377 268.447 387.439 268.328 387.46 268.2C387.477 268.044 387.432 267.887 387.335 267.764C387.238 267.64 387.096 267.56 386.94 267.54C361.5 268.487 336.067 269.267 310.64 269.88C304.64 248.96 291.98 229.06 277.22 213.3C276.76 207.98 276.74 205.3 274.46 199.96C270.06 189.86 265.2 187.76 265.32 190.16C265.319 190.792 265.42 191.42 265.62 192.02C264.82 191.02 258.94 184.9 257.74 188.2C256.855 187.643 255.856 187.293 254.818 187.175C253.779 187.058 252.727 187.175 251.74 187.52C248 181.52 241.74 181.52 237.74 179.52C230.1 175.52 233.62 162.76 239.24 158C239.24 158 263.38 157.54 263.4 157.24C263.84 151.58 268.66 65.4399 268.66 65.4399C209.18 64.2599 145.18 65.4399 86.1402 66.6399C85.7402 66.6399 85.4002 66.8999 85.4402 67.2599C89.0002 97.5599 97.7402 159.58 97.7402 159.58C99.1802 160.16 229.92 158.12 237.74 158C234.396 161.648 232.565 166.431 232.62 171.38C233.02 183.98 243.04 178.62 251.24 187.84C245.92 190.12 245.24 196.86 247.24 201.68C247.604 202.604 248.095 203.473 248.7 204.26C248.784 206.139 249.319 207.971 250.26 209.6C252.82 214.46 257.38 216.14 257.62 216.86C257.62 228.18 260 241.98 262.26 253.02C254.64 249.02 232.04 239.48 208.8 238.8C210.12 227.34 220.02 225.9 218.66 218.24C222.8 218.08 226.94 217.92 231.08 217.72C232.12 217.72 230.98 214.52 230.86 213.98C229.18 206.58 227.493 199.193 225.8 191.82C225.54 190.82 224.38 184.1 223.4 184.1L210.5 184.34C207.66 181.64 201 180.64 198.28 183.78C194.28 176.08 181.92 177.2 181.52 184.68C178.14 182.38 173.12 181.92 170.06 185.04C169.74 185.18 109.24 186 100.24 186.36H100.08C99.9829 186.422 99.9138 186.519 99.8876 186.631C99.8614 186.744 99.8803 186.862 99.9402 186.96C100.1 188 94.8802 212.68 94.2602 218.62C94.2602 219.46 103.32 219.34 104.26 219.34C91.3402 234.48 79.7202 251.56 76.2602 271.54C54.4602 271.2 32.6602 270.66 10.8602 270.74C10.7541 270.74 10.6523 270.782 10.5773 270.857C10.5023 270.932 10.4602 271.034 10.4602 271.14C10.4602 271.246 10.5023 271.348 10.5773 271.423C10.6523 271.498 10.7541 271.54 10.8602 271.54C32.5602 272.48 54.3202 272.58 76.0402 272.74C75.3931 276.705 75.1252 280.724 75.2402 284.74C53.6402 284.3 32.0402 283.62 10.4602 283.26C9.98016 283.26 9.90016 284.02 10.4602 284.02C32.0602 285.12 53.7001 285.52 75.3401 285.84C75.9001 296.7 80.1802 310.02 90.8202 314.9C95.2002 323.5 104.48 331.24 114.82 329.02C114.52 330.58 114.24 332.18 113.94 333.78C113.82 334.5 114.9 334.8 115.02 334.08C117.96 318.24 121.02 302.32 126.16 287.04C126.32 286.56 125.6 286.38 125.42 286.84C120.42 300.12 117.6 314.08 115 327.98C104.42 329.52 95.9802 322.78 91.6002 313.66C89.2437 308.841 87.8806 303.597 87.592 298.241C87.3034 292.884 88.0951 287.524 89.9202 282.48C95.3802 268.48 109.92 258.48 124.2 251.64C138.72 244.759 154.313 240.423 170.3 238.82C171.44 249.5 183.72 253.12 193.08 252.56C202.44 252 207.98 249.14 208.78 239.7C208.9 239.7 242.56 240.44 271.62 259.86C280.16 265.56 287.92 272.88 292.46 282.18C296.9 291.16 298.46 302.18 294.46 311.54C288.74 325.18 278.3 327.16 271.38 328.38C268.934 313.735 264.21 299.564 257.38 286.38C257.2 286.04 256.64 286.26 256.82 286.62C263.942 301.978 268.8 318.288 271.24 335.04C271.24 335.56 272.28 335.7 272.28 335.04C272.199 333.209 271.958 331.389 271.56 329.6C279.103 328.951 286.086 325.359 291 319.6C307 315.6 313.98 298.3 313 283.06C338.547 282.02 364.067 280.687 389.56 279.06C390.26 278.8 390 277.82 389.4 277.82V277.82ZM97.8202 146.94C93.8202 121.5 90.6401 96.1799 87.0201 70.7199C147.02 69.6799 208.58 70.1199 267.76 69.1199L263.14 144.14C238.16 144.9 101.04 145.68 97.8202 146.94ZM218.42 217.12C218.054 216.054 217.352 215.134 216.42 214.5C217.457 212.851 218.018 210.948 218.04 209H219.12L220.62 217L218.42 217.12ZM216.74 202.46C217.082 202.184 217.397 201.876 217.68 201.54C218.16 203.68 218.56 205.82 218.96 207.96H218C218.098 206.045 217.662 204.141 216.74 202.46V202.46ZM230.42 216.6L221.22 217C220.98 214.3 220.46 211.64 219.98 209C222.855 209.096 225.734 209.022 228.6 208.78C229.2 211.36 229.82 214 230.42 216.6ZM228.42 207.86H219.82L218.38 200.36L226.68 200.12L228.42 207.86ZM226.42 199.26L218.6 199.5C218.751 198.551 218.683 197.581 218.402 196.663C218.121 195.745 217.635 194.902 216.98 194.2C216.86 193.6 216.74 192.98 216.58 192.36L224.82 192.18L226.42 199.26ZM223.36 184.98C223.8 186.98 224.2 189.12 224.6 191.2L216.38 191.34C215.96 189.237 215.419 187.16 214.76 185.12L223.36 184.98ZM215.8 193.46C214.827 193.017 213.726 192.939 212.7 193.24C212.792 192.992 212.865 192.738 212.92 192.48H215.56L215.8 193.46ZM213.8 185.14C214.175 187.24 214.669 189.316 215.28 191.36H213.06C213.289 189.144 212.675 186.923 211.34 185.14H213.8ZM165.38 186H169.24C168.425 187.26 168.138 188.79 168.44 190.26L165.04 191.24C165.2 189.52 165.38 187.6 165.38 186V186ZM164.3 186V191.58C163.961 191.781 163.634 192.002 163.32 192.24L153.86 192.4C153.948 190.325 153.887 188.246 153.68 186.18L164.3 186ZM160.1 200.5H153.8V193.5L162 193.36C161.133 194.31 160.507 195.455 160.177 196.697C159.846 197.94 159.82 199.245 160.1 200.5V200.5ZM153.84 209.76H159.3C159.377 211.505 160.024 213.177 161.14 214.52C160.48 214.976 159.949 215.595 159.599 216.317C159.249 217.039 159.091 217.839 159.14 218.64H153.74C153.8 215.64 153.84 212.7 153.84 209.76ZM159.84 207.34C159.665 207.758 159.537 208.194 159.46 208.64H153.94V201.42H160.4C160.835 202.614 161.614 203.651 162.64 204.4C161.39 205.047 160.381 206.077 159.76 207.34H159.84ZM153.14 218.62H128.36C128.62 215.18 128.36 213.02 130.58 210.06L152.92 209.8C152.9 212.74 152.96 215.68 153.06 218.62H153.14ZM131.4 208.96C133.481 206.856 135.055 204.304 136 201.5H141V208.84L131.4 208.96ZM142.28 186.4L152.76 186.22C152.647 188.292 152.647 190.368 152.76 192.44L142.22 192.62C142.22 190.56 142.24 188.48 142.28 186.4ZM142.14 193.72L152.72 193.54V200.54H142C142 198.26 142 196 142.14 193.72V193.72ZM142 201.48H152.82V208.7L141.56 208.84C141.72 206.38 141.84 204 142 201.48V201.48ZM132 186.58L141.58 186.42L141.36 192.64L131.6 192.8C131.838 190.736 131.911 188.656 131.82 186.58H132ZM131.52 193.88L141.34 193.72L141.16 200.52H136.26C136.5 199.42 136.94 197.62 135.64 197.02C134.34 196.42 133.1 199.42 130.7 200.5C130.92 198.3 131.12 196.1 131.34 193.9L131.52 193.88ZM122.96 186.74L131.22 186.6C130.934 188.663 130.754 190.739 130.68 192.82H130C130.86 190.72 126.22 189.36 122.22 192.82C122.28 191.8 122.84 187.42 122.78 186.74H122.96ZM130.42 194C130.28 196.18 130.16 198.34 130.02 200.52H126.9C126.3 198.76 126.9 194.62 128.5 194H130.38H130.42ZM121.76 186.8L121.44 193H117.7C116.22 189.92 117.16 187.58 115.7 186.84L121.76 186.8ZM120.96 194.12C120.499 194.697 120.11 195.329 119.8 196L118.32 194.18L120.96 194.12ZM108.18 187.06L114.6 186.94C112.6 187.9 112.3 191.3 112.3 193.16H109.28C108.26 192.28 107.82 193.16 107.06 193.16L108.14 186.94L108.18 187.06ZM112.62 197.22C111.51 196.479 110.608 195.467 110 194.28H112.26C112.284 195.265 112.378 196.248 112.54 197.22H112.62ZM106 200.22L106.96 194.34C106.76 196.37 107.012 198.419 107.7 200.34L106 200.22ZM108 201.2C108.82 203.94 110 206.44 110.56 209.2L104.56 209.32L105.76 201.18L108 201.2ZM100.74 187.08H107.3C106.92 189.08 106.56 191.24 106.2 193.34C104.02 193.34 101.82 193.46 99.6402 193.56C100.111 191.423 100.452 189.259 100.66 187.08H100.74ZM99.5002 194.38H106C105.7 196.38 105.38 198.38 105.06 200.24H98.3602C98.7002 198.24 99.0602 196.3 99.4202 194.38H99.5002ZM98.2802 200.94C100.48 201.06 102.68 201.12 104.88 201.16C104.5 203.86 104.06 206.6 103.7 209.32C101.36 209.32 99.0202 209.48 96.6802 209.58C97.2202 206.7 97.7402 203.82 98.2802 200.94V200.94ZM102.78 218.28H95.0602C95.5602 215.6 96.0802 212.94 96.6202 210.28L103.56 210.46C103.138 213.05 102.851 215.66 102.7 218.28H102.78ZM103.34 218.28L104.52 210.28H110.74C110.8 210.812 110.8 211.348 110.74 211.88L105.12 218.3L103.34 218.28ZM89.7202 279.74C87.3809 285.07 86.2115 290.84 86.2908 296.66C86.3702 302.48 87.6964 308.216 90.1802 313.48C70.8202 300.4 74.9402 271.48 83.1802 253C89.9202 237.86 100.6 225 111.54 212.66C113.14 210.84 107.96 198.66 107.78 195.68C107.66 193.46 108.58 193 109.4 194.58C110.22 196.16 111.4 197.96 113.02 198.34C113.66 200.22 114.16 199.62 114.08 199.32C113.4 196.02 112.22 191.32 114.42 188.28C116.02 186.16 115.96 190.06 116.12 190.82C116.5 192.64 118.12 196.16 119.58 196.82C119.08 198.24 119.92 197.74 119.98 197.56C122.82 190.1 131.5 191.16 128.7 193C127.962 193.441 127.335 194.045 126.866 194.766C126.398 195.487 126.102 196.306 126 197.16C124.98 204.22 130.54 203.16 134.58 198.24C136.26 196.24 136.34 200.54 133.68 204.88C131.42 208.56 128.36 209.88 128 214.7C127 226.48 124.58 240.54 122.96 250.9C109.68 257.32 96.1002 266 89.6402 279.76L89.7202 279.74ZM124 250.36C125.953 240.19 127.348 229.922 128.18 219.6H159.2C160.36 226.3 168.68 227.2 170.02 237.6C154.058 239.161 138.487 243.478 124 250.36V250.36ZM208.44 234.22C207.942 235.793 207.62 237.416 207.48 239.06C206.68 247.54 203.08 250.36 193.66 251.06C183.66 251.88 172.82 248.72 171.3 237.94C169.96 228.34 166.88 229.18 161.94 222.46C160.46 220.46 159.14 216.74 161.94 215.18C163.316 216.691 165.039 217.844 166.96 218.54C171.28 228.24 172.74 239.42 185.3 240.66C209.58 242.92 204.14 229.7 211.84 218.16C213.337 217.468 214.693 216.505 215.84 215.32C216.713 216.05 217.316 217.052 217.552 218.165C217.787 219.279 217.643 220.439 217.14 221.46C215.18 226.2 210.46 228 208.44 234.22V234.22ZM258 189.36C258.68 190.88 259.38 192.38 260 193.9C259.02 192.64 254.22 187.4 252.62 190.2C251.8 191.66 253.52 193.84 254.22 195.14C251.536 195.615 249.137 197.105 247.52 199.3C244.96 190 254 185.36 258 189.36ZM248.96 202.98C248.58 202.04 248.18 201.08 247.78 200.14C249.535 198.085 251.894 196.636 254.52 196C255.645 198.323 256.375 200.817 256.68 203.38C257.22 208.5 253.3 204.84 251.4 203.08C250.66 202.32 249.42 202 248.86 202.98H248.96ZM292.26 317.8C298.88 308.52 299.16 296.54 295.32 286.06C289.88 271.24 276.94 260.86 263.32 253.6C260.701 241.506 259.003 229.231 258.24 216.88C258.24 215 251.88 213.72 249.9 206.34C249.54 205 248.8 201.48 251.22 204C253.64 206.52 257.76 208.84 257.58 203.32C257.34 196.78 252.9 192.42 253.3 190.94C253.8 189.08 257.5 192.58 258.1 193.18C259.663 194.9 261.082 196.746 262.34 198.7C262.56 199.02 263.1 198.7 262.9 198.4C262.433 197.6 261.953 196.8 261.46 196C261.78 195.32 258.18 188.96 258.82 188.36C259.46 187.76 262.34 189.84 262.98 190.36C266.32 193.26 266.48 195.2 267.62 196.7C267.672 196.718 267.728 196.718 267.78 196.7C267.851 196.706 267.922 196.684 267.978 196.639C268.034 196.595 268.07 196.531 268.08 196.46C267.96 195.18 267.22 194.46 266.86 193.58C266.5 192.7 265.76 190.72 266.26 190.02C266.5 189.82 267.88 190.84 268.04 191C269.36 192.264 270.461 193.737 271.3 195.36C277.42 205.82 275.58 212.56 276.62 213.58C291.8 230.68 308.02 255.72 311.3 278.32C313.52 294 308.58 312.28 292.16 317.8H292.26Z" fill="black"/>
<path d="M147.2 99.9997C147.66 99.8597 147.48 99.1997 147.06 99.1397C139.78 99.2797 132.04 99.1397 124.86 99.3397C124.3 99.3397 124.38 100.2 124.86 100.28C128.54 100.88 144 100.98 147.2 99.9997ZM338.14 206.96C340.86 205.78 354.14 200.42 355.72 199.52C355.75 199.493 355.774 199.461 355.79 199.425C355.807 199.389 355.815 199.349 355.815 199.31C355.815 199.27 355.807 199.231 355.79 199.195C355.774 199.158 355.75 199.126 355.72 199.1C355.688 199.051 355.643 199.013 355.59 198.988C355.537 198.963 355.478 198.954 355.42 198.96C352.06 199.66 341.18 204.84 337.8 206.52C337.62 206.66 337.86 207.08 338.14 206.96V206.96ZM204 160L161.6 160.64C163.42 181.2 204.54 181.52 204 160ZM204 116C204 116.087 204.033 116.17 204.093 116.233C204.152 116.297 204.234 116.335 204.32 116.34C211.1 116.5 225.44 116.92 230.86 116.18C231.3 116.18 231.16 115.44 230.86 115.44C223.2 115.44 212.14 115.44 204.42 115.66C204.369 115.647 204.316 115.647 204.265 115.658C204.214 115.67 204.167 115.693 204.126 115.726C204.085 115.759 204.053 115.801 204.031 115.848C204.009 115.896 203.999 115.947 204 116V116ZM146 85.9997C146.56 85.9997 146.32 85.1997 145.86 85.1197C132.08 85.5197 117.08 85.8197 103.64 86.1197C103.595 86.1269 103.552 86.1431 103.514 86.1673C103.475 86.1915 103.442 86.2232 103.416 86.2605C103.389 86.2978 103.371 86.3399 103.362 86.3845C103.352 86.429 103.352 86.475 103.36 86.5197C103.372 86.5898 103.405 86.6545 103.455 86.7047C103.505 86.7549 103.57 86.7882 103.64 86.7997C113.42 87.4997 133.3 86.4397 146 85.9997V85.9997ZM153.7 81.4197C154.16 81.4197 154.3 80.6197 153.7 80.5597C149.22 80.0197 105.04 80.7397 101.96 81.4197C101.66 81.4197 101.68 82.0197 101.96 82.0197C113.3 81.9997 140.48 81.2197 153.7 81.4197ZM66.7602 224.28V224.26V224.28ZM67.6002 224.62C69.141 221.77 70.3233 218.74 71.1202 215.6C71.4926 214.521 71.5777 213.363 71.3673 212.241C71.1569 211.119 70.6582 210.071 69.9202 209.2C70.6461 207.373 71.0194 205.425 71.0202 203.46C70.6202 200.2 67.1602 200.4 65.3002 202.9C57.8002 212.9 49.5202 228.9 49.7602 241.2C49.6202 241.78 49.9202 242.44 50.4402 241.96C59.3195 233.162 65.8875 222.307 69.5602 210.36C72.0602 214.08 68.2002 220.5 66.7602 224.26C66.5802 224.76 67.3402 225.06 67.6002 224.62V224.62ZM50.5202 240.38C50.6669 238.16 50.9744 235.955 51.4402 233.78L54.5202 236C53.2202 237.44 51.8802 238.94 50.5202 240.38ZM69.1002 208.38C67.7458 207.243 66.1193 206.478 64.3802 206.16C65.0484 204.939 65.8536 203.798 66.7802 202.76C67.6802 201.92 69.4002 201.58 69.9202 203C70.0967 204.82 69.8148 206.656 69.1002 208.34V208.38ZM120 106.5C119.12 106.86 114 114.5 113.06 115.84C111.896 114.293 110.554 112.89 109.06 111.66C108.977 111.621 108.882 111.614 108.794 111.64C108.706 111.665 108.63 111.722 108.58 111.8C108.551 111.877 108.551 111.962 108.58 112.04C109.721 113.907 111.062 115.644 112.58 117.22C112.635 117.28 112.701 117.328 112.775 117.361C112.849 117.394 112.929 117.41 113.01 117.41C113.091 117.41 113.171 117.394 113.245 117.361C113.319 117.328 113.386 117.28 113.44 117.22V117.12L120 108.16C120.92 106.86 120.66 106.16 120 106.5ZM240 95.9997C240.42 95.9997 240.5 95.1997 240 95.1397C227.521 94.5192 215.016 94.6995 202.56 95.6797C202.14 95.6797 202.18 96.4197 202.56 96.3997C212 96.3197 229.7 96.6197 240 95.9997Z" fill="black"/>
<path d="M120 118.62C120.8 118.3 119.2 112.34 118.98 111.4C118.974 111.358 118.959 111.318 118.937 111.282C118.915 111.245 118.885 111.214 118.851 111.189C118.817 111.163 118.778 111.145 118.736 111.135C118.695 111.125 118.652 111.124 118.61 111.13C118.568 111.137 118.528 111.152 118.492 111.174C118.455 111.196 118.424 111.225 118.399 111.259C118.373 111.294 118.355 111.333 118.345 111.374C118.335 111.415 118.334 111.458 118.34 111.5C118.58 113.64 118.82 115.8 119.22 117.9C115.88 118.16 112.86 118.14 109.6 118.28C109 115.68 108.48 112.28 107.6 109.7C110.116 109.912 112.645 109.912 115.16 109.7C116.82 109.7 116.7 108.66 115.28 108.68C114.44 108.68 107.28 108.54 107.28 109.4C106.34 109.4 108.32 117.78 108.44 118.34C108.461 118.44 108.513 118.53 108.588 118.599C108.664 118.667 108.759 118.71 108.86 118.72C109.1 119.76 119.62 119.6 120 118.62ZM241.12 111.6C241.103 111.522 241.06 111.453 240.998 111.402C240.936 111.351 240.86 111.323 240.78 111.32C228.66 111 215.7 111.58 203.42 111.56C203.06 111.56 203.04 112.16 203.42 112.2C214.18 112.92 230.82 113.36 240.86 112.04C240.95 112.012 241.027 111.952 241.075 111.87C241.123 111.789 241.139 111.693 241.12 111.6V111.6ZM109.14 104.16C111.946 104.238 114.753 104.111 117.54 103.78C119.28 104.22 116.62 93.3002 116.3 92.8002C116.258 92.7059 116.187 92.6278 116.097 92.5774C116.006 92.5269 115.903 92.5069 115.8 92.5202C114 92.5202 105.64 92.5202 104.46 92.7802C103.02 91.6202 105.12 101.48 105.42 102.66C106 104.64 107.28 104.16 109.14 104.16ZM104.7 93.4602C108.39 93.9108 112.118 93.9645 115.82 93.6202L117.1 102.86L106.62 103.4C106.7 102.72 104.94 94.7802 104.7 93.4602ZM231.64 100.2C231.746 100.2 231.848 100.158 231.923 100.083C231.998 100.008 232.04 99.9062 232.04 99.8002C232.04 99.6941 231.998 99.5923 231.923 99.5173C231.848 99.4423 231.746 99.4002 231.64 99.4002C229.16 98.9002 207.84 99.6602 203.42 100.04C203.08 100.04 203.08 100.62 203.42 100.64C205.82 100.74 229.26 100.8 231.64 100.2ZM63.7002 163.64C64.0802 163.64 66.9002 162.04 67.5602 164.64C68.4802 168.2 72.0802 166.06 72.6602 163.34C73.4002 159.98 70.2002 157.34 66.4202 157.34C58.7402 157.34 60.5002 164 63.7002 163.64ZM66.4202 158.12C70.7402 158.26 73.4002 162.34 70.7802 164.74C68.5402 166.74 68.7802 163.86 67.7002 162.74C65.5402 160.74 63.8202 163.16 62.6002 162.14C60.1002 160.14 64.8802 158 66.4202 158.12ZM113.26 125.54C110.12 125.54 110 125.02 110.4 128.08C110.52 128.94 111.14 135.02 112.18 135.08C112.4 136.04 121.38 135.7 122.52 135.36C124.06 135.36 122.52 130.62 122.52 130.08C121.2 123.12 122.84 125.28 113.26 125.54ZM112.68 134.62C112.18 132.1 111.8 128.76 111.08 126.36C114.355 126.68 117.658 126.559 120.9 126C121.104 128.785 121.539 131.548 122.2 134.26C119.08 134.4 115.84 134.56 112.68 134.62ZM244.26 80.2402C240.58 79.9002 187.58 80.2402 180.86 80.7602C180.773 80.7749 180.696 80.8228 180.644 80.8937C180.591 80.9645 180.569 81.0529 180.58 81.1402C180.594 81.2091 180.628 81.2723 180.678 81.3221C180.728 81.3719 180.791 81.406 180.86 81.4202C186.56 81.7202 240.18 81.5802 244.26 81.1202C244.377 81.1202 244.489 81.0738 244.571 80.9913C244.654 80.9088 244.7 80.7969 244.7 80.6802C244.7 80.5635 244.654 80.4516 244.571 80.369C244.489 80.2865 244.377 80.2402 244.26 80.2402V80.2402ZM154 94.9402C154.46 94.8402 154.3 94.2202 153.9 94.1402L123.52 94.9002C123.476 94.9049 123.433 94.9187 123.395 94.9408C123.356 94.9629 123.323 94.9928 123.297 95.0285C123.27 95.0643 123.252 95.1051 123.242 95.1484C123.232 95.1917 123.232 95.2366 123.24 95.2802C123.252 95.3502 123.285 95.4149 123.335 95.4651C123.385 95.5153 123.45 95.5486 123.52 95.5602C131.14 96.1202 147.38 96.2802 154 94.9402ZM274.46 151.16C274.6 152.68 276.12 167.84 276.68 168.94C280.68 176.74 295.4 176.94 295.72 165.4C296.28 160.6 298.22 146.82 297.46 143.4C297.68 142.28 298.84 137.4 299.06 134.82C299.06 134.4 299.86 122.98 298.26 124.72C296.125 127.563 294.231 130.581 292.6 133.74C292.32 134.96 292.04 136.16 291.74 137.36C290.855 137.026 289.937 136.792 289 136.66C289 135.84 288.4 131.84 288.12 130.24C286.74 127.56 285.32 125.16 284.12 122.38C282.42 118.2 282.38 118.12 281.9 122.72C281.099 127.406 281.099 132.194 281.9 136.88C272.84 138.76 273.78 144.1 274.44 151.16H274.46ZM296.34 129.16C296.585 129.397 296.878 129.578 297.199 129.692C297.519 129.806 297.861 129.85 298.2 129.82V134.86C297.358 134.942 296.507 134.853 295.7 134.599C294.892 134.344 294.144 133.93 293.5 133.38C294.48 132 295.5 130.58 296.34 129.16ZM293.46 134.42C294.785 135.362 296.375 135.859 298 135.84C297.34 139.56 296.68 143.26 296.16 147C295.48 149.44 292.16 150.32 290 150.62C291.32 145.34 292.32 139.66 293.46 134.36V134.42ZM289.46 149.18C289.363 149.682 289.296 150.19 289.26 150.7L284.38 150.82L282.38 131.98C283.285 132.253 284.242 132.301 285.169 132.12C286.096 131.939 286.965 131.534 287.7 130.94C287.7 130.94 289 148.88 289.46 149.12V149.18ZM282.62 125.58C282.927 125.66 283.246 125.677 283.559 125.628C283.872 125.58 284.172 125.469 284.44 125.3L287.18 130.22C286.462 130.755 285.63 131.117 284.748 131.277C283.867 131.436 282.961 131.389 282.1 131.14C282.066 129.253 282.24 127.369 282.62 125.52V125.58ZM296.48 148.62C296.12 153.66 295.48 164.3 294.18 169.06C291.88 175.24 281.86 175.34 277.44 169.06C276.6 162.12 275.76 155.06 274.94 148.22C278.68 153.64 293.22 152.98 296.48 148.56V148.62Z" fill="black"/>
<path d="M27.6201 170.66C30.6641 172.25 33.8778 173.491 37.2001 174.36C30.8201 183.14 49.0801 195.66 65.7801 188.98C73.4401 185.92 81.1001 176.2 73.6001 169.46C81.6001 163 84.4201 153.68 84.0801 143.46C83.5601 127.7 76.6001 116.1 60.6601 112.36C52.807 110.522 44.5777 111.158 37.1001 114.18L34.0001 108.82C34.9801 108.3 36.0001 107.8 37.0001 107.36C39.6401 106.46 38.8401 104.52 37.2801 105.1C6.64008 116.28 -0.439917 156.58 27.6201 170.66ZM37.4401 172.96C36.8801 170.96 38.3801 168.96 37.6801 166.78C36.0801 161.6 29.3801 164.6 27.6801 161.1C25.8201 157.28 30.7801 156.62 31.7801 153.88C31.9569 153.4 32.002 152.882 31.9105 152.379C31.8191 151.876 31.5945 151.407 31.2601 151.02C28.3801 147.42 21.7201 151.22 23.6201 142.82C25.0601 136.48 31.1801 133.48 35.6201 136.28C40.0601 139.08 42.7201 140.96 48.3401 137.68C57.7001 132.18 56.5401 143.68 53.6801 147.16C52.1601 149.04 49.4001 148.94 47.2801 149.74C40.3601 152.34 40.4001 157 45.8801 158.14C48.0001 158.58 50.7201 158.38 52.3801 159.98C56.8801 164.36 47.5801 173.72 44.6401 175.26C43.0601 174.94 38.2401 174 37.4401 172.96V172.96ZM62.8201 114.12C74.6001 117.78 80.8201 126.3 82.5001 138.48C83.2986 143.736 83.1019 149.096 81.9201 154.28C81.4401 154.94 74.6801 156.8 72.5001 154C71.6584 152.868 71.0965 151.553 70.8601 150.163C70.6237 148.773 70.7197 147.346 71.1401 146C72.4401 142.64 76.8601 139.68 75.5001 136.24C73.6201 131.48 68.1201 137.98 65.8001 136.64C62.3201 134.64 68.8401 130.8 61.4001 129.42C58.6601 128.92 56.4201 130.04 54.4001 127.02C49.7801 120.1 61.8001 114.1 62.8201 114.06V114.12ZM40.0001 122.98C40.0864 123.116 40.2171 123.219 40.3702 123.27C40.5233 123.321 40.6892 123.317 40.8401 123.26C41.0133 123.189 41.152 123.053 41.2267 122.881C41.3014 122.709 41.3062 122.515 41.2401 122.34L37.6001 115.24C45.0182 112.265 53.1854 111.705 60.9401 113.64C50.9401 116.94 49.7601 128.22 56.9401 130.16C58.4601 130.58 65.2601 129.98 64.0801 132.88C63.8406 133.35 63.7063 133.867 63.6865 134.395C63.6667 134.922 63.7619 135.448 63.9655 135.935C64.1691 136.422 64.4762 136.859 64.8655 137.216C65.2548 137.572 65.717 137.84 66.2201 138C69.0201 138.5 72.0201 134.28 74.0801 136C77.6801 139 68.2801 143.64 69.8801 150.32C71.0801 155.44 73.2001 157.06 78.4001 156.32C79.5391 156.222 80.6439 155.881 81.6401 155.32C77.3401 170.38 61.2601 177.32 46.5601 175.5C49.5201 172.78 54.1201 167.38 54.5601 163.5C55.2401 156.62 47.3401 158 44.4401 156.48C40.4401 154.48 46.1601 151 49.8201 150.2C51.0194 150.002 52.1802 149.618 53.2601 149.06C59.2601 145.38 57.6001 130.58 48.9001 136.04C41.4601 140.7 39.1601 136.74 35.7001 134.96C30.1601 132.14 22.5601 136.58 22.1801 144.96C21.9601 150.66 26.6601 149.44 29.4001 150.96C29.8911 151.144 30.3011 151.496 30.5574 151.954C30.8137 152.411 30.8996 152.945 30.8001 153.46C30.1601 155.46 27.2601 155.86 26.4601 158.28C26.1437 159.224 26.1553 160.247 26.4929 161.183C26.8304 162.12 27.4743 162.915 28.3201 163.44C30.9401 164.96 35.5801 163.64 36.6801 167.26C37.2201 169.02 36.1601 170.82 36.2801 172.6C31.1773 170.766 26.6841 167.551 23.3011 163.313C19.9181 159.076 17.7783 153.982 17.1201 148.6C15.3201 135 23.6201 121.78 35.8201 116C37.0801 118.32 38.6601 120.72 40.0001 122.98V122.98ZM22.0001 117.64C25.0024 114.527 28.4623 111.89 32.2601 109.82C33.3748 111.53 34.3963 113.299 35.3201 115.12C29.0431 118.036 23.8191 122.818 20.3613 128.814C16.9035 134.81 15.3805 141.726 16.0001 148.62C16.417 152.571 17.6554 156.391 19.6359 159.836C21.6163 163.28 24.2951 166.272 27.5001 168.62C8.38008 158 7.58008 132.96 22.0001 117.64ZM235.46 131.74C233.74 131.36 208.02 131.24 204.38 131.74C204.29 131.74 204.203 131.776 204.14 131.839C204.076 131.903 204.04 131.99 204.04 132.08C204.04 132.17 204.076 132.257 204.14 132.32C204.203 132.384 204.29 132.42 204.38 132.42C205.76 132.62 232.64 133.08 235.46 132.42C235.553 132.399 235.637 132.347 235.697 132.273C235.756 132.198 235.789 132.105 235.789 132.01C235.789 131.914 235.756 131.822 235.697 131.747C235.637 131.673 235.553 131.621 235.46 131.6V131.74ZM244 85.7399C224.7 85.9599 199.76 85.2999 182.36 85.7399C181.88 85.7399 181.92 86.4199 182.36 86.4599C189.66 87.2599 238.12 87.1999 244 86.4599C244.057 86.455 244.113 86.4385 244.163 86.4114C244.214 86.3843 244.258 86.3471 244.294 86.3021C244.33 86.2571 244.356 86.2053 244.37 86.1499C244.385 86.0945 244.388 86.0366 244.38 85.9799C244.348 85.9064 244.295 85.8443 244.227 85.8015C244.159 85.7587 244.08 85.7372 244 85.7399V85.7399ZM241.86 127.4C230.16 127.14 215.54 127.86 203.08 127.54C202.72 127.54 202.64 128.06 203.08 128.1C210.74 128.86 234.72 129.62 241.94 128.22C242.32 128.12 242.36 127.4 241.86 127.4V127.4Z" fill="black"/>
</svg>
